<?xml version="1.0" encoding="utf-8"?>
<!-- Generator: Adobe Illustrator 23.0.0, SVG Export Plug-In . SVG Version: 6.00 Build 0)  -->
<svg version="1.1" id="Camada_1" xmlns="http://www.w3.org/2000/svg" xmlns:xlink="http://www.w3.org/1999/xlink" x="0px" y="0px"
	 viewBox="0 0 340.7 99.1" style="enable-background:new 0 0 340.7 99.1;" xml:space="preserve">
<style type="text/css">
	.st0{fill:#FFFFFF;}
	.st1{fill:#65A463;}
</style>
<g>
	<path class="st0" d="M-619.2-602.7l-4.9-6.8h-6v6.8h-2v-17.6h8.6c3.8,0,6.1,2.1,6.1,5.4c0,2.9-1.5,4.7-4.3,5.2l5.1,6.9H-619.2z
		 M-623.8-611.4c3,0,4.3-1,4.3-3.4c0-2.3-1.4-3.4-4.2-3.4h-6.5v6.9H-623.8z"/>
	<path class="st0" d="M-619-603l-4.9-6.8h-6.5v6.8h-1.4v-17h8.3c3.6,0,5.8,2,5.8,5.1c0,2.9-1.5,4.6-4.6,5l5.1,6.9H-619z
		 M-623.8-611.1c3.2,0,4.6-1.1,4.6-3.7c0-3.1-2.4-3.7-4.5-3.7h-6.8v7.5H-623.8z"/>
	<path class="st0" d="M-619.1-602.9l-4.9-6.8h-6.3v6.8h-1.6V-620h8.4c3.6,0,5.9,2,5.9,5.2c0,2.9-1.5,4.6-4.5,5.1l5.1,6.9H-619.1z
		 M-623.8-611.2c3.1,0,4.5-1.1,4.5-3.6c0-3-2.4-3.6-4.4-3.6h-6.7v7.3H-623.8z"/>
	<path class="st0" d="M-618.9-603.2l-4.9-6.8h-6.8v6.8h-1v-16.6h8.1c3.5,0,5.6,1.9,5.6,4.9c0,2.9-1.6,4.5-4.7,4.8l5,6.8H-618.9z
		 M-630.6-610.9h6.9c3.2,0,4.8-1.1,4.8-3.9c0-2.6-1.7-3.9-4.7-3.9h-7V-610.9z"/>
	<polygon class="st0" points="-605.6,-602.7 -613.4,-620.2 -611.2,-620.2 -604.7,-605.6 -598.3,-620.2 -596.1,-620.2 -603.8,-602.7 
			"/>
	<polygon class="st0" points="-605.4,-603 -612.9,-619.9 -611.4,-619.9 -604.7,-604.8 -598.1,-619.9 -596.6,-619.9 -604,-603 	"/>
	<polygon class="st0" points="-605.5,-602.9 -613.1,-620 -611.3,-620 -604.7,-605.1 -598.2,-620 -596.4,-620 -604,-602.9 	"/>
	<path class="st0" d="M-596.9-619.7l-7.3,16.6h-1.1l-7.3-16.6h1.1l6.8,15.4l6.7-15.4H-596.9z"/>
	<path class="st0" d="M-583.4-602.3c-5.3,0-8.9-3.8-8.9-9.1c0-5.4,3.7-9.2,8.9-9.2c5.3,0,9,3.8,9,9.2
		C-574.5-606-578.1-602.3-583.4-602.3z M-583.4-618.6c-4.2,0-6.9,2.8-6.9,7.2c0,4.3,2.8,7.2,6.9,7.2c4.2,0,6.9-2.8,6.9-7.2
		C-576.5-615.8-579.2-618.6-583.4-618.6z"/>
	<path class="st0" d="M-583.4-602.6c-5.1,0-8.6-3.6-8.6-8.8c0-5.2,3.6-8.9,8.6-8.9c5.1,0,8.7,3.6,8.7,8.9
		C-574.8-606.1-578.3-602.6-583.4-602.6z M-583.4-618.9c-4.4,0-7.2,2.9-7.2,7.5c0,4.5,2.9,7.5,7.2,7.5c4.4,0,7.2-2.9,7.2-7.5
		C-576.2-616-579.1-618.9-583.4-618.9z"/>
	<path class="st0" d="M-583.4-602.5c-5.1,0-8.7-3.7-8.7-8.9c0-5.3,3.6-9,8.7-9c5.2,0,8.8,3.7,8.8,9
		C-574.7-606.1-578.2-602.5-583.4-602.5z M-583.4-618.8c-4.3,0-7.1,2.9-7.1,7.4c0,4.5,2.8,7.4,7.1,7.4c4.3,0,7.1-2.9,7.1-7.4
		C-576.3-615.9-579.1-618.8-583.4-618.8z"/>
	<path class="st0" d="M-583.4-620.1c5,0,8.5,3.5,8.5,8.7c0,5.2-3.5,8.6-8.5,8.6c-4.9,0-8.4-3.4-8.4-8.6
		C-591.9-616.6-588.4-620.1-583.4-620.1z M-583.4-619.1c-4.3,0-7.4,2.9-7.4,7.7c0,4.7,3,7.7,7.4,7.7c4.4,0,7.4-2.9,7.4-7.7
		C-576-616.2-579.1-619.1-583.4-619.1z"/>
	<path class="st0" d="M-555.7-602.7l-4.9-6.8h-6v6.8h-2v-17.6h8.6c3.8,0,6.1,2.1,6.1,5.4c0,2.9-1.5,4.7-4.3,5.2l5.1,6.9H-555.7z
		 M-560.3-611.4c3,0,4.3-1,4.3-3.4c0-2.3-1.4-3.4-4.2-3.4h-6.5v6.9H-560.3z"/>
	<path class="st0" d="M-555.6-603l-4.9-6.8h-6.5v6.8h-1.4v-17h8.3c3.6,0,5.8,2,5.8,5.1c0,2.9-1.5,4.6-4.6,5l5.1,6.9H-555.6z
		 M-560.3-611.1c3.2,0,4.6-1.1,4.6-3.7c0-3.1-2.4-3.7-4.5-3.7h-6.8v7.5H-560.3z"/>
	<path class="st0" d="M-555.6-602.9l-4.9-6.8h-6.3v6.8h-1.6V-620h8.4c3.6,0,5.9,2,5.9,5.2c0,2.9-1.5,4.6-4.5,5.1l5.1,6.9H-555.6z
		 M-560.3-611.2c3.1,0,4.5-1.1,4.5-3.6c0-3-2.4-3.6-4.4-3.6h-6.7v7.3H-560.3z"/>
	<path class="st0" d="M-555.5-603.2l-4.9-6.8h-6.8v6.8h-1v-16.6h8.1c3.5,0,5.6,1.9,5.6,4.9c0,2.9-1.6,4.5-4.7,4.8l5,6.8H-555.5z
		 M-567.2-610.9h6.9c3.2,0,4.8-1.1,4.8-3.9c0-2.6-1.7-3.9-4.7-3.9h-7V-610.9z"/>
	<polygon class="st0" points="-548,-602.7 -548,-620.2 -534.5,-620.2 -534.5,-618.3 -545.9,-618.3 -545.9,-612.7 -537.8,-612.7 
		-537.8,-610.7 -545.9,-610.7 -545.9,-604.6 -534.5,-604.6 -534.5,-602.7 	"/>
	<polygon class="st0" points="-547.7,-603 -547.7,-619.9 -534.8,-619.9 -534.8,-618.6 -546.2,-618.6 -546.2,-612.4 -538.1,-612.4 
		-538.1,-611 -546.2,-611 -546.2,-604.3 -534.8,-604.3 -534.8,-603 	"/>
	<polygon class="st0" points="-547.8,-602.9 -547.8,-620 -534.7,-620 -534.7,-618.5 -546.1,-618.5 -546.1,-612.5 -538,-612.5 
		-538,-610.9 -546.1,-610.9 -546.1,-604.4 -534.7,-604.4 -534.7,-602.9 	"/>
	<path class="st0" d="M-546.4-618.8v6.5h8.1v1h-8.1v7.1h11.5v1h-12.5v-16.6h12.5v1H-546.4z"/>
	<path class="st0" d="M-521.9-602.7v-17.6h6.3c6,0,9.8,3.4,9.8,8.8c0,5.4-3.7,8.8-9.8,8.8H-521.9z M-515.4-604.6
		c4.6,0,7.5-2.6,7.5-6.8c0-4.2-3-6.8-7.5-6.8h-4.5v13.7H-515.4z"/>
	<path class="st0" d="M-521.6-603v-17h6c5.8,0,9.5,3.2,9.5,8.5c0,5.2-3.6,8.5-9.5,8.5H-521.6z M-515.4-604.3c4.8,0,7.8-2.7,7.8-7.1
		c0-4.3-3.1-7.1-7.8-7.1h-4.8v14.3H-515.4z"/>
	<path class="st0" d="M-521.7-602.9V-620h6.1c5.9,0,9.6,3.3,9.6,8.6c0,5.3-3.7,8.6-9.6,8.6H-521.7z M-515.4-604.4
		c4.8,0,7.7-2.7,7.7-7c0-4.3-3-7-7.7-7h-4.7v14.1H-515.4z"/>
	<path class="st0" d="M-515.6-603.2h-5.8v-16.6h5.8c6,0,9.3,3.4,9.3,8.3C-506.3-606.5-509.6-603.2-515.6-603.2z M-515.4-618.8h-5
		v14.7h5c4.7,0,8-2.6,8-7.3C-507.4-615.8-510.4-618.8-515.4-618.8z"/>
	<path class="st0" d="M-492.5-602.3c-5.3,0-8.9-3.8-8.9-9.1c0-5.4,3.7-9.2,8.9-9.2c5.3,0,9,3.8,9,9.2
		C-483.5-606-487.2-602.3-492.5-602.3z M-492.5-618.6c-4.2,0-6.9,2.8-6.9,7.2c0,4.3,2.8,7.2,6.9,7.2c4.2,0,6.9-2.8,6.9-7.2
		C-485.6-615.8-488.3-618.6-492.5-618.6z"/>
	<path class="st0" d="M-492.5-602.6c-5.1,0-8.6-3.6-8.6-8.8c0-5.2,3.6-8.9,8.6-8.9c5.1,0,8.7,3.6,8.7,8.9
		C-483.8-606.1-487.3-602.6-492.5-602.6z M-492.5-618.9c-4.4,0-7.2,2.9-7.2,7.5c0,4.5,2.9,7.5,7.2,7.5c4.4,0,7.2-2.9,7.2-7.5
		C-485.3-616-488.1-618.9-492.5-618.9z"/>
	<path class="st0" d="M-492.5-602.5c-5.1,0-8.7-3.7-8.7-8.9c0-5.3,3.6-9,8.7-9c5.2,0,8.8,3.7,8.8,9
		C-483.7-606.1-487.3-602.5-492.5-602.5z M-492.5-618.8c-4.3,0-7.1,2.9-7.1,7.4c0,4.5,2.8,7.4,7.1,7.4c4.3,0,7.1-2.9,7.1-7.4
		C-485.4-615.9-488.2-618.8-492.5-618.8z"/>
	<path class="st0" d="M-492.5-620.1c5,0,8.5,3.5,8.5,8.7c0,5.2-3.5,8.6-8.5,8.6c-4.9,0-8.4-3.4-8.4-8.6
		C-501-616.6-497.4-620.1-492.5-620.1z M-492.5-619.1c-4.3,0-7.4,2.9-7.4,7.7c0,4.7,3,7.7,7.4,7.7c4.4,0,7.4-2.9,7.4-7.7
		C-485.1-616.2-488.2-619.1-492.5-619.1z"/>
	<path class="st0" d="M-643.3-578.2c-2.6,0-5-1-6.7-2.7c-1.7-1.7-2.5-3.9-2.5-6.5c0-2.5,0.8-4.7,2.5-6.4c1.7-1.7,4.1-2.7,6.7-2.7
		l0.1,0c2.8,0,5.5,1.1,7.5,3l0.3,0.3l-2.3,2.6l-0.4-0.3c-1.3-1.2-3.1-1.9-4.8-1.9c-3.2,0-5.4,2.2-5.4,5.4c0,3.2,2.2,5.4,5.4,5.4
		c1.7,0,3.5-0.7,4.8-1.8l0.4-0.3l2.3,2.6l-0.3,0.3C-637.7-579.3-640.4-578.2-643.3-578.2L-643.3-578.2z"/>
	<path class="st0" d="M-643.3-578.5c-2.5,0-4.8-0.9-6.5-2.6c-1.6-1.6-2.4-3.8-2.4-6.3c0-2.4,0.8-4.6,2.4-6.2c1.6-1.7,4-2.6,6.5-2.6
		l0.1,0c2.7,0,5.4,1,7.3,2.9l0.1,0.1l-1.9,2.2l-0.1-0.1c-1.4-1.2-3.2-1.9-5-1.9c-3.4,0-5.7,2.4-5.7,5.7c0,3.4,2.4,5.7,5.7,5.7
		c1.8,0,3.6-0.7,5-1.9l0.1-0.1l2,2.1l-0.1,0.1C-637.9-579.6-640.5-578.5-643.3-578.5L-643.3-578.5z"/>
	<path class="st0" d="M-643.3-578.4c-2.6,0-4.9-0.9-6.6-2.6c-1.6-1.7-2.5-3.8-2.4-6.3c0-2.5,0.8-4.6,2.4-6.3c1.7-1.7,4-2.6,6.5-2.6
		l0.1,0c2.7,0,5.4,1.1,7.3,2.9l0.2,0.2l-2.1,2.3l-0.2-0.2c-1.4-1.2-3.2-1.9-5-1.9c-3.3,0-5.6,2.3-5.6,5.6c0,3.3,2.3,5.6,5.6,5.6
		c1.8,0,3.6-0.7,5-1.9l0.2-0.2l2.1,2.3l-0.2,0.2C-637.8-579.5-640.5-578.4-643.3-578.4L-643.3-578.4z"/>
	<path class="st0" d="M-643.2-596c2.7,0,5.3,1,7.1,2.8l-1.7,1.9c-1.4-1.2-3.3-2-5.2-2c-3.4,0-5.9,2.3-5.9,5.9c0,3.6,2.6,5.9,5.9,5.9
		c1.9,0,3.8-0.7,5.2-2l1.7,1.9c-1.9,1.8-4.4,2.8-7.1,2.8c-4.8,0-8.9-3.4-8.8-8.7C-652.1-592.6-648-596.1-643.2-596z"/>
	<path class="st0" d="M-621.9-578.2c-5.6,0-9.3-3.7-9.3-9.1c0-5.5,3.7-9.2,9.3-9.2c5.5,0,9.3,3.7,9.3,9.2
		C-612.6-581.9-616.4-578.2-621.9-578.2z M-621.9-592.8c-3.2,0-5.1,2-5.1,5.5c0,3.4,1.9,5.4,5.1,5.4c3.2,0,5.1-2,5.1-5.4
		C-616.8-590.8-618.7-592.8-621.9-592.8z"/>
	<path class="st0" d="M-621.9-578.5c-5.4,0-9-3.5-9-8.8c0-5.3,3.6-8.9,9-8.9c5.4,0,9,3.6,9,8.9C-612.9-582-616.6-578.5-621.9-578.5z
		 M-621.9-593.1c-3.4,0-5.4,2.2-5.4,5.8c0,3.6,2,5.7,5.4,5.7c3.4,0,5.4-2.1,5.4-5.7C-616.5-590.9-618.5-593.1-621.9-593.1z"/>
	<path class="st0" d="M-621.9-578.4c-5.4,0-9.1-3.6-9.1-8.9c0-5.4,3.7-9,9.1-9c5.4,0,9.1,3.6,9.1,9
		C-612.8-582-616.5-578.4-621.9-578.4z M-621.9-593c-3.3,0-5.3,2.1-5.3,5.7c0,3.5,2,5.6,5.3,5.6c3.4,0,5.3-2,5.3-5.6
		C-616.6-590.9-618.6-593-621.9-593z"/>
	<path class="st0" d="M-621.9-596c5.3,0,8.8,3.5,8.8,8.7c0,5.2-3.5,8.6-8.8,8.6c-5.3,0-8.8-3.5-8.8-8.6
		C-630.7-592.5-627.2-596-621.9-596z M-621.9-593.3c-3.4,0-5.6,2.1-5.6,6c0,3.8,2.2,5.9,5.6,5.9c3.4,0,5.6-2.1,5.6-5.9
		C-616.3-591.2-618.5-593.3-621.9-593.3z"/>
	<polygon class="st0" points="-595.3,-578.6 -604.2,-589.7 -604.2,-578.6 -608.3,-578.6 -608.3,-596.1 -604.3,-596.1 -595.4,-585.1 
		-595.4,-596.1 -591.4,-596.1 -591.4,-578.6 	"/>
	<polygon class="st0" points="-595.1,-578.9 -604.5,-590.5 -604.5,-578.9 -608,-578.9 -608,-595.8 -604.5,-595.8 -595.1,-584.2 
		-595.1,-595.8 -591.7,-595.8 -591.7,-578.9 	"/>
	<polygon class="st0" points="-595.2,-578.8 -604.4,-590.2 -604.4,-578.8 -608.1,-578.8 -608.1,-595.9 -604.4,-595.9 -595.2,-584.5 
		-595.2,-595.9 -591.6,-595.9 -591.6,-578.8 	"/>
	<path class="st0" d="M-591.9-595.6v16.6h-3.1l-9.7-12v12h-3.1v-16.6h3.2l9.6,12v-12H-591.9z"/>
	<polygon class="st0" points="-572.5,-578.6 -572.5,-583.1 -581.3,-583.1 -581.3,-578.6 -585.4,-578.6 -585.4,-596.1 -581.3,-596.1 
		-581.3,-586.7 -572.5,-586.7 -572.5,-596.1 -568.4,-596.1 -568.4,-578.6 	"/>
	<polygon class="st0" points="-572.2,-578.9 -572.2,-583.4 -581.6,-583.4 -581.6,-578.9 -585.1,-578.9 -585.1,-595.8 -581.6,-595.8 
		-581.6,-586.4 -572.2,-586.4 -572.2,-595.8 -568.7,-595.8 -568.7,-578.9 	"/>
	<polygon class="st0" points="-572.3,-578.8 -572.3,-583.3 -581.5,-583.3 -581.5,-578.8 -585.2,-578.8 -585.2,-595.9 -581.5,-595.9 
		-581.5,-586.5 -572.3,-586.5 -572.3,-595.9 -568.6,-595.9 -568.6,-578.8 	"/>
	<path class="st0" d="M-568.9-595.6v16.6h-3.1v-4.5h-9.8v4.5h-3.1v-16.6h3.1v9.4h9.8v-9.4H-568.9z"/>
	<polygon class="st0" points="-562.4,-578.6 -562.4,-596.1 -547.8,-596.1 -547.8,-592.5 -558.3,-592.5 -558.3,-589.4 -551.2,-589.4 
		-551.2,-585.7 -558.3,-585.7 -558.3,-582.3 -547.8,-582.3 -547.8,-578.6 	"/>
	<polygon class="st0" points="-562.1,-578.9 -562.1,-595.8 -548.1,-595.8 -548.1,-592.8 -558.6,-592.8 -558.6,-589.1 -551.5,-589.1 
		-551.5,-586 -558.6,-586 -558.6,-582 -548.1,-582 -548.1,-578.9 	"/>
	<polygon class="st0" points="-562.2,-578.8 -562.2,-595.9 -548,-595.9 -548,-592.7 -558.5,-592.7 -558.5,-589.2 -551.4,-589.2 
		-551.4,-585.9 -558.5,-585.9 -558.5,-582.1 -548,-582.1 -548,-578.8 	"/>
	<path class="st0" d="M-548.3-581.8v2.7h-13.6v-16.6h13.6v2.7h-10.5v4h7.2v2.7h-7.2v4.5H-548.3z"/>
	<path class="st0" d="M-534.2-578.2c-2.6,0-5-1-6.7-2.7c-1.7-1.7-2.5-3.9-2.5-6.5c0-2.5,0.8-4.7,2.5-6.4c1.7-1.7,4.1-2.7,6.7-2.7
		l0.1,0c2.8,0,5.5,1.1,7.5,3l0.3,0.3l-2.3,2.6l-0.4-0.3c-1.3-1.2-3.1-1.9-4.8-1.9c-3.2,0-5.4,2.2-5.4,5.4c0,3.2,2.2,5.4,5.4,5.4
		c1.7,0,3.5-0.7,4.8-1.8l0.4-0.3l2.3,2.6l-0.3,0.3C-528.6-579.3-531.4-578.2-534.2-578.2L-534.2-578.2z"/>
	<path class="st0" d="M-534.2-578.5c-2.5,0-4.8-0.9-6.5-2.6c-1.6-1.6-2.4-3.8-2.4-6.3c0-2.4,0.8-4.6,2.4-6.2c1.6-1.7,4-2.6,6.5-2.6
		l0.1,0c2.7,0,5.4,1,7.3,2.9l0.1,0.1l-1.9,2.2l-0.1-0.1c-1.4-1.2-3.2-1.9-5-1.9c-3.4,0-5.7,2.4-5.7,5.7c0,3.4,2.4,5.7,5.7,5.7
		c1.8,0,3.6-0.7,5-1.9l0.1-0.1l2,2.1l-0.1,0.1C-528.8-579.6-531.4-578.5-534.2-578.5L-534.2-578.5z"/>
	<path class="st0" d="M-534.2-578.4c-2.6,0-4.9-0.9-6.6-2.6c-1.6-1.7-2.5-3.8-2.4-6.3c0-2.5,0.8-4.6,2.4-6.3c1.7-1.7,4-2.6,6.5-2.6
		l0.1,0c2.7,0,5.4,1.1,7.3,2.9l0.2,0.2l-2.1,2.3l-0.2-0.2c-1.4-1.2-3.2-1.9-5-1.9c-3.3,0-5.6,2.3-5.6,5.6c0,3.3,2.3,5.6,5.6,5.6
		c1.8,0,3.6-0.7,5-1.9l0.2-0.2l2.1,2.3l-0.2,0.2C-528.7-579.5-531.4-578.4-534.2-578.4L-534.2-578.4z"/>
	<path class="st0" d="M-534.1-596c2.7,0,5.3,1,7.1,2.8l-1.7,1.9c-1.4-1.2-3.3-2-5.2-2c-3.4,0-5.9,2.3-5.9,5.9c0,3.6,2.6,5.9,5.9,5.9
		c1.9,0,3.8-0.7,5.2-2l1.7,1.9c-1.9,1.8-4.4,2.8-7.1,2.8c-4.8,0-8.9-3.4-8.8-8.7C-543-592.6-538.9-596.1-534.1-596z"/>
	<rect x="-521" y="-596.1" class="st0" width="4.1" height="17.6"/>
	<rect x="-520.7" y="-595.8" class="st0" width="3.5" height="17"/>
	<rect x="-520.8" y="-595.9" class="st0" width="3.7" height="17.2"/>
	<path class="st0" d="M-520.5-595.6h3.1v16.6h-3.1V-595.6z"/>
	<polygon class="st0" points="-493.8,-578.6 -493.8,-588.6 -498.6,-578.6 -502.6,-578.6 -507.4,-588.6 -507.4,-578.6 -511.4,-578.6 
		-511.4,-596.1 -506.9,-596.1 -500.6,-583.3 -494.4,-596.1 -489.8,-596.1 -489.8,-578.6 	"/>
	<polygon class="st0" points="-493.5,-578.9 -493.5,-590 -498.8,-578.9 -502.4,-578.9 -507.7,-590 -507.7,-578.9 -511.1,-578.9 
		-511.1,-595.8 -507,-595.8 -500.6,-582.6 -494.2,-595.8 -490.1,-595.8 -490.1,-578.9 	"/>
	<polygon class="st0" points="-493.6,-578.8 -493.6,-589.5 -498.8,-578.8 -502.4,-578.8 -507.6,-589.5 -507.6,-578.8 -511.2,-578.8 
		-511.2,-595.9 -507,-595.9 -500.6,-582.8 -494.2,-595.9 -490,-595.9 -490,-578.8 	"/>
	<path class="st0" d="M-490.3-595.6v16.6h-3v-11.8l-5.6,11.8h-3.3l-5.6-11.8v11.8h-3v-16.6h3.8l6.6,13.5l6.6-13.5H-490.3z"/>
	<polygon class="st0" points="-484.2,-578.6 -484.2,-596.1 -469.7,-596.1 -469.7,-592.5 -480.2,-592.5 -480.2,-589.4 -473,-589.4 
		-473,-585.7 -480.2,-585.7 -480.2,-582.3 -469.6,-582.3 -469.6,-578.6 	"/>
	<polygon class="st0" points="-483.9,-578.9 -483.9,-595.8 -470,-595.8 -470,-592.8 -480.5,-592.8 -480.5,-589.1 -473.3,-589.1 
		-473.3,-586 -480.5,-586 -480.5,-582 -469.9,-582 -469.9,-578.9 	"/>
	<polygon class="st0" points="-484,-578.8 -484,-595.9 -469.9,-595.9 -469.9,-592.7 -480.4,-592.7 -480.4,-589.2 -473.2,-589.2 
		-473.2,-585.9 -480.4,-585.9 -480.4,-582.1 -469.8,-582.1 -469.8,-578.8 	"/>
	<path class="st0" d="M-470.1-581.8v2.7h-13.6v-16.6h13.6v2.7h-10.5v4h7.2v2.7h-7.2v4.5H-470.1z"/>
	<polygon class="st0" points="-452.7,-578.6 -461.6,-589.7 -461.6,-578.6 -465.7,-578.6 -465.7,-596.1 -461.8,-596.1 -452.9,-585.1 
		-452.9,-596.1 -448.8,-596.1 -448.8,-578.6 	"/>
	<polygon class="st0" points="-452.5,-578.9 -461.9,-590.5 -461.9,-578.9 -465.4,-578.9 -465.4,-595.8 -461.9,-595.8 -452.6,-584.2 
		-452.6,-595.8 -449.1,-595.8 -449.1,-578.9 	"/>
	<polygon class="st0" points="-452.6,-578.8 -461.8,-590.2 -461.8,-578.8 -465.5,-578.8 -465.5,-595.9 -461.9,-595.9 -452.7,-584.5 
		-452.7,-595.9 -449,-595.9 -449,-578.8 	"/>
	<path class="st0" d="M-449.3-595.6v16.6h-3.1l-9.7-12v12h-3.1v-16.6h3.2l9.6,12v-12H-449.3z"/>
	<polygon class="st0" points="-438.8,-578.6 -438.8,-592.4 -444.9,-592.4 -444.9,-596.1 -428.7,-596.1 -428.7,-592.4 -434.8,-592.4 
		-434.8,-578.6 	"/>
	<polygon class="st0" points="-438.5,-578.9 -438.5,-592.7 -444.6,-592.7 -444.6,-595.8 -429,-595.8 -429,-592.7 -435.1,-592.7 
		-435.1,-578.9 	"/>
	<polygon class="st0" points="-438.6,-578.8 -438.6,-592.6 -444.7,-592.6 -444.7,-595.9 -428.9,-595.9 -428.9,-592.6 -435,-592.6 
		-435,-578.8 	"/>
	<path class="st0" d="M-429.2-592.9h-6v13.9h-3.1v-13.9h-6v-2.7h15.1V-592.9z"/>
	<path class="st0" d="M-416.5-578.2c-5.6,0-9.3-3.7-9.3-9.1c0-5.5,3.7-9.2,9.3-9.2c5.5,0,9.3,3.7,9.3,9.2
		C-407.2-581.9-410.9-578.2-416.5-578.2z M-416.5-592.8c-3.2,0-5.1,2-5.1,5.5c0,3.4,1.9,5.4,5.1,5.4c3.2,0,5.1-2,5.1-5.4
		C-411.4-590.8-413.3-592.8-416.5-592.8z"/>
	<path class="st0" d="M-416.5-578.5c-5.4,0-9-3.5-9-8.8c0-5.3,3.6-8.9,9-8.9c5.4,0,9,3.6,9,8.9C-407.5-582-411.1-578.5-416.5-578.5z
		 M-416.5-593.1c-3.4,0-5.4,2.2-5.4,5.8c0,3.6,2,5.7,5.4,5.7c3.4,0,5.4-2.1,5.4-5.7C-411.1-590.9-413.1-593.1-416.5-593.1z"/>
	<path class="st0" d="M-416.5-578.4c-5.4,0-9.1-3.6-9.1-8.9c0-5.4,3.7-9,9.1-9c5.4,0,9.1,3.6,9.1,9
		C-407.4-582-411-578.4-416.5-578.4z M-416.5-593c-3.3,0-5.3,2.1-5.3,5.7c0,3.5,2,5.6,5.3,5.6c3.4,0,5.3-2,5.3-5.6
		C-411.2-590.9-413.1-593-416.5-593z"/>
	<path class="st0" d="M-416.5-596c5.3,0,8.8,3.5,8.8,8.7c0,5.2-3.5,8.6-8.8,8.6c-5.3,0-8.8-3.5-8.8-8.6
		C-425.3-592.5-421.7-596-416.5-596z M-416.5-593.3c-3.4,0-5.6,2.1-5.6,6c0,3.8,2.2,5.9,5.6,5.9c3.4,0,5.6-2.1,5.6-5.9
		C-410.9-591.2-413.1-593.3-416.5-593.3z"/>
	<g>
		<polygon class="st0" points="-646,-620.6 -643.7,-625.2 -641.2,-625.2 -644,-620.6 		"/>
		<polygon class="st0" points="-645.5,-620.9 -643.5,-624.9 -641.8,-624.9 -644.1,-620.9 		"/>
		<polygon class="st0" points="-645.6,-620.8 -643.5,-625 -641.6,-625 -644.1,-620.8 		"/>
		<polygon class="st0" points="-644.3,-621.1 -645.2,-621.1 -643.3,-624.7 -642.1,-624.7 		"/>
		<polygon class="st0" points="-638.2,-602.7 -644.8,-617.5 -651.5,-602.7 -653.7,-602.7 -645.6,-620.2 -643.9,-620.2 
			-635.9,-602.7 		"/>
		<polygon class="st0" points="-638,-603 -644.8,-618.2 -651.7,-603 -653.2,-603 -645.4,-619.9 -644.1,-619.9 -636.4,-603 		"/>
		<polygon class="st0" points="-638,-602.9 -644.8,-617.9 -651.6,-602.9 -653.4,-602.9 -645.5,-620 -644,-620 -636.2,-602.9 		"/>
		<polygon class="st0" points="-637.8,-603.2 -636.7,-603.2 -644.2,-619.7 -645.3,-619.7 -652.9,-603.2 -651.8,-603.2 
			-644.8,-618.7 		"/>
	</g>
</g>
<g>
	<g>
		<path class="st1" d="M-671.8-621.9c0-0.2-0.2-0.3-0.3-0.4c-0.1,0-0.1,0-0.2,0c-0.1,0-0.2,0-0.3,0.1c0,0-4.3,2.8-5.4,5.7
			c-1.1,2.6,0.8,4.5,1.1,4.8l0.1,0.1l-0.1,0.2c-0.4,0.6-0.7,1.1-1.1,1.4l-0.1,0.1l-0.1-0.1c-1.7-0.8-3.1-1.2-4.4-1.2
			c-1.8,0-2.8,0.9-3.4,1.6c-0.3,0.3-0.5,0.7-0.7,1.1l-0.1,0.1h-3.8l4.4-5.8l0.2,0c0.2,0.1,0.4,0.1,0.7,0.1c0.3,0,0.5,0.1,0.7,0.1
			c1.3,0,2.4-0.5,3.4-1.4c2.6-2.5,3.7-8.2,3.8-8.5c0-0.2,0-0.4-0.1-0.5c-0.1-0.1-0.3-0.2-0.4-0.2c0,0-0.1,0-0.1,0
			c-0.2,0-6,1-8.6,3.5c-1.5,1.4-1.6,3-1.5,4.1c0.1,0.4,0.2,0.9,0.3,1.3l0.1,0.2l-5.5,4.7v-4.2l0.1-0.1c0.4-0.2,0.7-0.4,1-0.6
			c0.8-0.6,1.7-1.6,1.7-3.4c0-0.4,0-0.9-0.1-1.4l0-0.1l0.1-0.1c0.1-0.1,0.1-0.2,0.1-0.3c0.2-2.1,1.7-4.1,4.3-5.6l0.2-0.1l0.1,0.1
			c0.3,0.2,0.5,0.4,0.8,0.6c0.7,0.4,1.4,0.6,2.1,0.6c0.6,0,1.1-0.1,1.7-0.3c2.9-1.2,5.8-5.4,5.9-5.6c0.1-0.2,0.1-0.3,0.1-0.5
			c-0.1-0.2-0.2-0.3-0.4-0.3c-0.1,0-2.3-0.5-4.6-0.5c-1.4,0-2.6,0.2-3.5,0.5c-1.7,0.7-2.3,1.9-2.6,2.8c-0.2,0.6-0.2,1.2-0.2,1.5
			l0,0.2l-0.1,0.1c-0.1,0.1-0.3,0.2-0.4,0.3c-1.2,0.8-2.2,1.8-3,2.8l-0.3,0.4l-0.1-0.5c-0.8-3.1-0.6-6,0.4-8.2c0,0,0-0.1,0.1-0.2
			l0.1-0.2l0.2,0.1c0.4,0.1,0.9,0.2,1.3,0.2c1.1,0,2.1-0.4,2.9-1.2c2.2-2.1,3.2-7,3.2-7.2c0-0.2,0-0.4-0.1-0.5
			c-0.1-0.1-0.3-0.2-0.4-0.2c0,0-0.1,0-0.1,0c-0.2,0-5.1,0.9-7.3,3c-1.9,1.8-1.4,4.1-0.8,5.2l0.1,0.1l-0.2,0.3
			c-0.6,1.3-0.9,2.7-1,4.2c-0.1,1.3,0.1,2.7,0.4,4.2l-0.5,0.2c-0.6-1.1-1.1-1.9-1.1-1.9c-0.1-0.2-0.3-0.2-0.5-0.2
			c-0.2,0-0.4,0.1-0.5,0.2c-0.1,0.2-3.1,4.3-3.1,7.5c0,1.8,0.9,2.9,1.6,3.5c0.3,0.3,0.7,0.5,1.1,0.7l0.1,0.1v5.1l-5.8,4.9l0.1-4.3
			l0.1-0.1c0.6-0.2,2.5-1.3,2.5-3.7c0-2.8-2.6-6.6-2.7-6.8c-0.1-0.2-0.3-0.2-0.5-0.2c-0.2,0-0.4,0.1-0.5,0.2c0,0-2.7,3.9-2.7,6.8
			c0,2.4,1.9,3.5,2.4,3.7l0.2,0.1l-0.2,5.3l-2.5,2.1l-1.3-18.3l2.1-2.1l0.1,0c0.5,0.2,0.9,0.2,1.4,0.2c1.1,0,2-0.4,2.8-1.2
			c2-2,2.8-6.5,2.8-6.7c0-0.2,0-0.4-0.2-0.5c-0.1-0.1-0.2-0.2-0.4-0.2c0,0-0.1,0-0.1,0c-0.2,0-4.7,0.9-6.7,2.9
			c-1.8,1.8-1.1,3.9-0.8,4.5l0.1,0.2l-1.3,1.3l-0.7-9.5l3.9-2.3l0.1,0.1c0.5,0.3,1.4,0.9,2.6,0.9c0.7,0,1.4-0.2,2-0.5
			c2.7-1.5,4.9-5.9,5-6.1c0.1-0.2,0.1-0.4,0-0.5c-0.1-0.2-0.3-0.3-0.4-0.3c0,0-0.9-0.1-2.1-0.1c-1.7,0-4.1,0.2-5.7,1.1l-0.7,0.4
			l0.3-0.7c0.3-0.7,0.7-1.4,1.2-2.1l0.1-0.1l0.2,0c0.2,0,0.5,0.1,0.7,0.1c0.8,0,2-0.3,2.9-1.5c1.4-2,1.4-6,1.4-6.2
			c0-0.2-0.1-0.4-0.2-0.5c-0.1-0.1-0.2-0.1-0.3-0.1c-0.1,0-0.1,0-0.2,0c-0.2,0.1-3.8,1.5-5.2,3.5c-1.1,1.6-0.5,3.2-0.1,3.7l0.1,0.1
			l-0.1,0.1c-1.1,1.7-2.4,4.3-2.4,7.2c0,0.1,0,0.2,0.1,0.3l0.1,0.2l-3.3,1.9l-0.5-6.7l0.2-0.1c0.4-0.2,0.8-0.4,1.1-0.7
			c0.9-0.7,1.9-1.9,1.8-3.9c-0.1-3.6-3.4-8.4-3.6-8.6c-0.1-0.1-0.3-0.2-0.5-0.2c-0.2,0-0.4,0.1-0.5,0.2c-0.1,0.2-3.4,5.1-3.3,8.7
			c0,2,1.1,3.2,2,3.9c0.3,0.2,0.6,0.4,1,0.6l0.2,0.1l-0.5,6.7l-3.3-1.9l0.1-0.2c0.1-0.1,0.1-0.2,0.1-0.3c0-2.9-1.3-5.5-2.4-7.2
			l-0.1-0.1l0.1-0.1c0.3-0.6,1-2.1-0.1-3.7c-1.4-2-5.1-3.5-5.2-3.5c-0.1,0-0.1,0-0.2,0c-0.1,0-0.2,0-0.3,0.1
			c-0.2,0.1-0.2,0.3-0.2,0.5c0,0.2,0,4.1,1.4,6.2c0.9,1.3,2.1,1.5,2.9,1.5c0.2,0,0.5,0,0.7-0.1l0.2,0l0.1,0.1
			c0.4,0.7,0.8,1.4,1.2,2.1l0.2,0.6l-0.6-0.4c-1.6-0.9-4-1.1-5.7-1.1c-1.2,0-2.1,0.1-2.1,0.1c-0.2,0-0.3,0.1-0.4,0.3
			c-0.1,0.2-0.1,0.4,0,0.5c0.1,0.2,2.3,4.6,5,6.1c0.7,0.4,1.3,0.5,2,0.5c1.2,0,2.2-0.6,2.6-0.9l0.1-0.1l3.9,2.3l-0.7,9.5l-1.3-1.3
			l0.1-0.2c0.3-0.6,1-2.7-0.8-4.5c-2-2-6.5-2.9-6.7-2.9c0,0-0.1,0-0.1,0c-0.1,0-0.3,0.1-0.4,0.2c-0.1,0.1-0.2,0.3-0.2,0.5
			c0,0.2,0.8,4.7,2.8,6.7c0.8,0.8,1.7,1.2,2.8,1.2c0.5,0,0.9-0.1,1.4-0.2l0.1,0l2.1,2l0.1,0.1l-1.3,18.3l-2.5-2.1l-0.2-5.3l0.2-0.1
			c0.6-0.3,2.4-1.3,2.4-3.7c0-2.9-2.7-6.7-2.7-6.8c-0.1-0.1-0.3-0.2-0.5-0.2c-0.2,0-0.4,0.1-0.5,0.2c-0.1,0.2-2.7,3.9-2.7,6.8
			c0,2.4,1.9,3.4,2.5,3.7l0.1,0.1l0.1,4.3l-5.8-4.9v-5.1l0.1-0.1c0.4-0.2,0.8-0.4,1.1-0.7c0.8-0.6,1.7-1.7,1.6-3.5
			c0-3.2-3-7.3-3.1-7.5c-0.1-0.1-0.3-0.2-0.5-0.2c-0.2,0-0.4,0.1-0.5,0.2c0,0-0.5,0.8-1.1,1.9l-0.5-0.2c0.3-1.5,0.4-2.9,0.4-4.2
			c-0.1-1.5-0.4-3-1-4.2l-0.2-0.3l0.1-0.1c0.6-1.1,1.1-3.4-0.8-5.2c-2.2-2.1-7-3-7.2-3c0,0-0.1,0-0.1,0c-0.2,0-0.3,0.1-0.4,0.2
			c-0.1,0.1-0.2,0.3-0.1,0.5c0,0,1,5,3.2,7.2c0.8,0.8,1.8,1.2,2.9,1.2c0.4,0,0.8-0.1,1.3-0.2l0.2-0.1l0.1,0.2
			c0.7,1.6,1.4,4.3,0.4,8.4l-0.1,0.5l-0.3-0.4c-0.7-1-1.8-1.9-3-2.8c-0.1-0.1-0.3-0.2-0.4-0.3l-0.1-0.1l0-0.1c0-0.4,0-0.9-0.2-1.5
			c-0.3-0.9-0.9-2.2-2.6-2.8c-0.9-0.4-2.1-0.5-3.5-0.5c-2.3,0-4.5,0.5-4.6,0.5c-0.2,0-0.3,0.2-0.4,0.3c-0.1,0.2,0,0.4,0.1,0.5
			c0.1,0.2,3,4.4,5.9,5.6c0.6,0.2,1.1,0.3,1.7,0.3c0.7,0,1.5-0.2,2.1-0.6c0.3-0.2,0.6-0.4,0.8-0.6l0.1-0.1l0.2,0.1
			c2.6,1.6,4.1,3.5,4.3,5.6c0,0.1,0,0.2,0.1,0.3l0.1,0.1l0,0.1c-0.1,0.5-0.1,1-0.1,1.4c0,1.8,1,2.9,1.7,3.4c0.3,0.2,0.7,0.4,1,0.6
			l0.1,0.1v4.2l-5.5-4.7l0.1-0.2c0.2-0.4,0.3-0.9,0.3-1.3c0.1-1.1,0-2.7-1.5-4.1c-2.6-2.5-8.3-3.5-8.6-3.5c0,0-0.1,0-0.1,0
			c-0.2,0-0.3,0.1-0.4,0.2c-0.1,0.1-0.2,0.3-0.1,0.5c0,0.2,1.2,6,3.8,8.5c1,0.9,2.1,1.4,3.4,1.4c0.2,0,0.5,0,0.7-0.1
			c0.2,0,0.5-0.1,0.7-0.1l0.2,0l4.4,5.8h-3.8l-0.1-0.1c-0.2-0.4-0.4-0.8-0.7-1.1c-0.6-0.7-1.7-1.6-3.5-1.6c0,0,0,0,0,0
			c-1.2,0-2.6,0.4-4.3,1.2l-0.1,0.1l-0.1-0.1c-0.4-0.3-0.8-0.8-1.1-1.4l-0.1-0.2l0.1-0.1c0.4-0.3,2.2-2.2,1.1-4.8
			c-1.2-2.9-5.4-5.6-5.4-5.7c-0.1-0.1-0.2-0.1-0.3-0.1c-0.1,0-0.1,0-0.2,0c-0.2,0.1-0.3,0.2-0.3,0.4c0,0.1-1.1,5,0,7.8
			c0.9,2.2,2.9,2.6,3.7,2.7l0.1,0l0.1,0.1c0.3,0.7,0.7,1.2,1.1,1.7l0.2,0.2l-0.3,0.2c-0.9,0.5-1.5,1-1.7,1.1
			c-0.2,0.1-0.2,0.3-0.2,0.5c0,0.2,0.1,0.4,0.2,0.5c0.2,0.1,4.3,2.9,7.6,2.9h0c1.8,0,2.9-1,3.4-1.7c0.2-0.3,0.4-0.7,0.6-1l0.1-0.1
			h4.7l11.8,15.4l-0.2,3l-7.8-5.8l0-0.2c0.1-0.4,0.2-1.2,0.1-2.2c-0.1-1.9-1-3.4-2.4-4.3c-1.9-1.3-4.9-1.6-7-1.6
			c-1.4,0-2.5,0.1-2.6,0.1c-0.2,0-0.3,0.1-0.4,0.3c-0.1,0.1-0.1,0.3-0.1,0.5c0.1,0.2,2,5.7,5.2,7.9c1,0.7,2.1,1,3.3,1
			c0.4,0,0.9-0.1,1.4-0.2c0.5-0.1,1-0.3,1.5-0.5l0.1-0.1l6.4,4.7l-0.8,0c-0.4,0-0.9,0-1.3,0c-0.4,0-0.7,0-1.1,0l-0.1,0l-0.1-0.1
			c-0.7-0.5-2.2-1.5-3.9-2c-0.8-0.2-1.6-0.3-2.3-0.3c-0.9,0-1.9,0.1-2.8,0.4l-0.1,0l-0.1,0c-1.9-0.3-4-1.4-6.1-3.4l-0.1-0.1l0.1-0.2
			c0.5-1.1,0.8-3.4-1.2-5.1c-2.4-1.9-7.3-2.3-7.5-2.3c-0.2,0-0.3,0.1-0.4,0.2c-0.1,0.1-0.2,0.3-0.1,0.5c0.1,0.2,1.5,4.9,3.8,6.8
			c0.8,0.6,1.7,1,2.6,1c0.5,0,1.1-0.1,1.6-0.3l0.1-0.1l0.1,0.1c1.1,1.1,2.9,2.6,5,3.4l0.5,0.2l-0.5,0.2c-1.2,0.6-1.9,1.2-1.9,1.3
			c-0.2,0.1-0.2,0.3-0.2,0.5c0,0.2,0.2,0.4,0.4,0.4c0,0,1.7,0.5,3.2,1.4c0.3,0.2,0.5,0.3,0.8,0.5c0.9,0.6,1.9,1.3,3.2,1.3
			c0.3,0,0.7,0,1-0.1c2.6-0.7,5.4-3,5.4-3l0.1-0.1l0.1-0.1c0,0,0.5,0,0.7,0c1.6,0,2.9,0.2,4,0.5l0.2,0.1l-0.6,8
			c-0.1,1.8-0.5,6-1.7,9l1.1,0.4c0.4-1.1,0.9-2.8,1.1-4.2c0.5-2.6,0.6-4.8,0.6-5l0.9-12.5c0-0.1,0-0.3-0.1-0.4l-11.9-15.5l0-0.1
			c0-0.2-0.1-0.3-0.3-0.4l0,0l-3-3.9l0.4-0.3l14.6,12.4c0.1,0.1,0.2,0.1,0.4,0.1c0.1,0,0.1,0,0.2,0c0.2-0.1,0.3-0.3,0.3-0.5
			l2.1-30.6h0.5l2.1,30.6c0,0.2,0.1,0.4,0.3,0.5c0.1,0,0.1,0,0.2,0c0.1,0,0.3,0,0.4-0.1l14.6-12.4l0.4,0.3l-3,3.9l0,0
			c-0.1,0.1-0.2,0.2-0.3,0.4l0,0l-11.9,15.5c-0.1,0.1-0.1,0.2-0.1,0.4l0.9,12.5c0,0.4,0.1,2.6,0.6,5c0.3,1.5,0.8,3.1,1.2,4.2
			l1.1-0.4c-1.2-3-1.6-7.2-1.7-9l-0.6-8l0.2-0.1c1.1-0.3,2.4-0.5,4-0.5c0.2,0,0.4,0,0.6,0l0.1,0l0.1,0.1c0,0,2.8,2.4,5.4,3.1
			c0.3,0.1,0.7,0.1,1,0.1c1.3,0,2.2-0.6,3.2-1.3c0.3-0.2,0.6-0.4,0.8-0.5c1.5-0.9,3.1-1.4,3.2-1.4c0.2-0.1,0.3-0.2,0.4-0.4
			c0-0.2,0-0.4-0.2-0.5c0,0-0.7-0.6-1.9-1.3l-0.5-0.2l0.5-0.2c2-0.8,3.8-2.3,5-3.4l0.1-0.1l0.1,0.1c0.5,0.2,1.1,0.3,1.6,0.3
			c1,0,1.8-0.3,2.6-1c2.4-1.9,3.8-6.6,3.8-6.8c0.1-0.2,0-0.4-0.1-0.5c-0.1-0.1-0.3-0.2-0.5-0.2c0,0,0,0,0,0c-0.2,0-5.1,0.4-7.5,2.3
			c-2,1.6-1.7,3.9-1.2,5.1l0.1,0.2l-0.1,0.1c-2.2,2-4.2,3.2-6.1,3.4l-0.1,0l-0.1,0l-0.1,0c-0.9-0.3-1.9-0.4-2.8-0.4
			c-0.8,0-1.6,0.1-2.3,0.3c-1.8,0.4-3.2,1.4-3.9,2l-0.1,0.1l-0.1,0c-0.4,0-0.7,0-1.1,0c-0.4,0-0.9,0-1.3,0l-0.8,0l6.4-4.7l0.1,0.1
			c0.5,0.2,1,0.4,1.5,0.5c0.5,0.1,0.9,0.2,1.4,0.2c1.2,0,2.3-0.4,3.3-1c3.2-2.2,5.1-7.6,5.2-7.9c0.1-0.2,0-0.3-0.1-0.5
			c-0.1-0.1-0.2-0.2-0.4-0.3c-0.1,0-1.2-0.1-2.6-0.1c-2.1,0-5.1,0.3-7,1.6c-1.4,1-2.2,2.5-2.4,4.3c-0.1,0.9,0,1.7,0.1,2.2l0,0.2
			l-7.8,5.8l-0.2-3l11.8-15.4h4.7l0.1,0.1c0.2,0.4,0.4,0.7,0.6,1c0.6,0.8,1.6,1.7,3.5,1.7c3.2,0,7.3-2.8,7.5-2.9
			c0.2-0.1,0.2-0.3,0.2-0.5c0-0.2-0.1-0.4-0.2-0.5c-0.2-0.1-0.8-0.6-1.7-1.1l-0.3-0.2l0.2-0.2c0.4-0.4,0.8-1,1.1-1.7l0.1-0.1l0.1,0
			c0.8-0.1,2.8-0.5,3.7-2.7C-670.7-616.9-671.8-621.9-671.8-621.9z M-685.9-620.1c1.7-1.6,5-2.6,6.8-3l0.4-0.1l-0.1,0.4
			c-0.2,0.6-0.4,1.3-0.6,1.9c-0.8,2.2-1.7,3.8-2.6,4.8c-0.8,0.7-1.6,1.1-2.6,1.1c-0.1,0-0.3,0-0.4,0l-0.4,0l1.9-2.4
			c0.2-0.2,0.2-0.6-0.1-0.7c-0.1-0.1-0.2-0.2-0.4-0.2c-0.1,0-0.3,0-0.4,0.1l-2.5,2.1l-0.1-0.4c0-0.1-0.1-0.3-0.1-0.4
			C-687.2-618.1-686.8-619.2-685.9-620.1z M-685.3-628.6c0.2-0.8,0.6-1.8,2-2.4c0.8-0.3,1.8-0.5,3.1-0.5c1.2,0,2.4,0.1,3.2,0.3
			l0.4,0.1l-0.3,0.3c-0.8,1-2.8,3.4-4.6,4.2c-0.4,0.2-0.8,0.3-1.3,0.3c-0.6,0-1.2-0.2-1.7-0.5l-0.4-0.2l0.4-0.2
			c1-0.5,1.6-0.7,1.6-0.7c0.3-0.1,0.5-0.4,0.4-0.7c-0.1-0.2-0.3-0.4-0.5-0.4c-0.1,0-0.1,0-0.2,0c-0.1,0-0.8,0.3-1.7,0.7l-0.4,0.2
			L-685.3-628.6z M-689.5-638c1.3-1.3,4-2.1,5.4-2.4l0.4-0.1l-0.1,0.4c-0.1,0.4-0.3,0.9-0.4,1.4c-0.6,1.8-1.4,3.2-2.2,4
			c-0.6,0.6-1.3,0.9-2.1,0.9c-0.2,0-0.4,0-0.5,0l-0.4-0.1l0.2-0.3c0.6-0.8,1.1-1.2,1.1-1.2c0.3-0.2,0.3-0.5,0.1-0.8
			c-0.1-0.2-0.3-0.2-0.5-0.2c-0.1,0-0.2,0-0.3,0.1c0,0-0.6,0.4-1.3,1.3l-0.3,0.4l-0.1-0.5c0-0.1,0-0.1,0-0.2
			C-690.6-636.5-690.3-637.3-689.5-638z M-702.4-626.6c1.1-1.1,3.3-1.9,4.9-2.3l0.4-0.1l-0.1,0.4c-0.3,1.3-1.1,3.7-2.3,4.9
			c-0.6,0.6-1.2,0.8-2,0.8c0,0-0.6,0-0.6,0l1.2-1.2c0.2-0.2,0.2-0.6,0-0.8c-0.1-0.1-0.3-0.2-0.4-0.2c-0.1,0-0.3,0.1-0.4,0.2
			l-1.4,1.3l-0.1-0.4c0-0.1,0-0.2-0.1-0.3C-703.3-625.2-703.1-625.9-702.4-626.6z M-699.5-645.2c0.8-1.1,2.5-2.1,3.5-2.6l0.4-0.2
			l0,0.4c-0.1,1.1-0.3,3.1-1.1,4.2c-0.4,0.6-0.9,0.9-1.6,1l-0.6,0.1l0.4-0.5c0.3-0.4,0.5-0.6,0.5-0.6c0.2-0.2,0.2-0.6,0-0.8
			c-0.1-0.1-0.2-0.2-0.4-0.2c-0.2,0-0.3,0.1-0.4,0.2c0,0-0.3,0.3-0.7,0.8l-0.3,0.4l-0.1-0.5C-700-644-699.9-644.6-699.5-645.2z
			 M-701.5-635.3c0-0.1,0-0.1,0-0.2c0.1-1,0.7-1.7,1.6-2.2c1.4-0.8,3.5-0.9,5.1-0.9c0.3,0,0.5,0,0.8,0l0.4,0l-0.2,0.4
			c-0.8,1.3-2.3,3.6-3.9,4.5c-0.5,0.3-1,0.4-1.5,0.4c-0.4,0-0.9-0.1-1.3-0.3l-0.4-0.2l1.9-1.1c0.1-0.1,0.2-0.2,0.3-0.3
			c0-0.1,0-0.3-0.1-0.4c-0.1-0.2-0.3-0.3-0.5-0.3c-0.1,0-0.2,0-0.3,0.1l-1.5,0.9l-0.4,0.2L-701.5-635.3z M-714.7-643.4l-0.1,0.5
			l-0.3-0.4c-0.4-0.4-0.6-0.7-0.7-0.8c-0.1-0.1-0.3-0.2-0.4-0.2c-0.1,0-0.3,0.1-0.4,0.2c-0.2,0.2-0.2,0.6,0,0.8c0,0,0.2,0.2,0.5,0.6
			l0.4,0.5l-0.6-0.1c-0.7-0.1-1.2-0.4-1.6-1c-0.8-1.1-1-3.1-1.1-4.2l0-0.4l0.4,0.2c1,0.5,2.8,1.5,3.5,2.6
			C-714.8-644.6-714.6-644-714.7-643.4z M-715.8-635.3c0,0.1,0.1,0.3,0.3,0.3l1.9,1.1l-0.4,0.2c-0.4,0.2-0.9,0.3-1.3,0.3
			c-0.5,0-1-0.1-1.5-0.4c-1.6-0.9-3.1-3.2-3.9-4.5l-0.2-0.4l0.4,0c0.2,0,0.4,0,0.7,0c1.6,0,3.8,0.2,5.2,0.9c1.2,0.7,1.5,1.7,1.6,2.4
			l0,0.5l-1.9-1.1c-0.1,0-0.2-0.1-0.3-0.1c-0.2,0-0.4,0.1-0.5,0.3C-715.8-635.6-715.8-635.4-715.8-635.3z M-711.4-624.3
			c0,0.1,0,0.2-0.1,0.3l-0.1,0.4l-1.4-1.3c-0.1-0.1-0.2-0.2-0.4-0.2c-0.2,0-0.3,0.1-0.4,0.2c-0.2,0.2-0.2,0.6,0,0.8l0.8,0.8l0.4,0.4
			h-0.6c-0.8,0-1.4-0.3-2-0.8c-1.1-1.1-1.8-3.3-2.3-4.9l-0.1-0.4l0.4,0.1c1.3,0.4,3.7,1.1,4.9,2.3
			C-711.6-625.9-711.3-625.2-711.4-624.3z M-724.2-635.3l-0.1,0.5l-0.3-0.4c-0.7-0.9-1.3-1.3-1.3-1.3c-0.1-0.1-0.2-0.1-0.3-0.1
			c-0.2,0-0.4,0.1-0.5,0.2c-0.2,0.3-0.1,0.6,0.1,0.8c0,0,0.5,0.4,1.1,1.2l0.2,0.3l-0.4,0.1c-0.2,0-0.3,0-0.5,0
			c-0.8,0-1.5-0.3-2.1-0.9c-1.3-1.3-2.2-3.9-2.6-5.3l-0.1-0.4l0.4,0.1c0.4,0.1,0.9,0.2,1.4,0.4c1.8,0.6,3.2,1.3,4,2
			C-724.3-637.3-724-636.3-724.2-635.3z M-729.6-628.4c-1-0.5-1.7-0.7-1.7-0.7c-0.1,0-0.1,0-0.2,0c-0.2,0-0.5,0.2-0.5,0.4
			c-0.1,0.3,0.1,0.6,0.4,0.7c0,0,0.7,0.2,1.7,0.7l0.4,0.2l-0.4,0.2c-0.5,0.4-1.1,0.5-1.7,0.5c-0.4,0-0.8-0.1-1.3-0.3
			c-1.8-0.7-3.7-2.9-4.6-4.2l-0.3-0.3l0.4-0.1c0.4-0.1,1-0.1,1.6-0.2c0.6,0,1.1-0.1,1.6-0.1c1.3,0,2.3,0.2,3.1,0.5
			c1.3,0.5,1.8,1.6,2,2.4l0.1,0.5L-729.6-628.4z M-727.6-616.5l-0.1,0.4l-2.5-2.1c-0.1-0.1-0.2-0.1-0.4-0.1c-0.1,0-0.3,0.1-0.4,0.2
			c-0.2,0.2-0.2,0.5-0.1,0.7l1.9,2.4l-0.4,0c-0.1,0-0.3,0-0.4,0c-1,0-1.9-0.4-2.6-1.1c-1.7-1.6-2.7-4.9-3.2-6.7l-0.1-0.4l0.4,0.1
			c0.7,0.2,1.3,0.3,1.9,0.5c2.2,0.7,3.9,1.5,4.8,2.5C-727.4-618.9-727.4-617.5-727.6-616.5z M-738.3-612.7l-0.2-0.4
			c-0.2-0.6-0.4-1.3-0.6-1.8c-0.1-0.3-0.3-0.4-0.5-0.4c0,0-0.1,0-0.1,0c-0.3,0.1-0.5,0.4-0.4,0.7c0,0.2,0.2,0.8,0.5,1.6l0.2,0.5
			l-0.5-0.2c-0.8-0.3-1.4-0.9-1.8-1.7c-0.7-1.6-0.5-4.1-0.2-5.9l0.1-0.4l0.3,0.3c1.2,0.9,3.3,2.7,4,4.4c0.6,1.4,0.1,2.5-0.5,3.1
			L-738.3-612.7z M-731.3-608.3c-0.3,0-0.6,0.3-0.6,0.6c0,0.3,0.3,0.6,0.6,0.6h1.8l0.4,0l-0.3,0.5c-0.6,0.8-1.5,1.3-2.6,1.3
			c-1.8,0-4.2-1.1-5.8-2.1l-0.4-0.2l0.4-0.2c0.4-0.2,0.8-0.5,1.4-0.8c1.8-0.9,3.3-1.4,4.5-1.5l0.1,0h0c1.1,0,2,0.5,2.7,1.4l0.3,0.4
			H-731.3z M-720.3-595.3l-3.7-2.8c-0.1-0.1-0.2-0.1-0.3-0.1c-0.2,0-0.3,0.1-0.5,0.2c-0.2,0.2-0.1,0.6,0.1,0.8l3.6,2.6l-0.5,0.1
			c-0.5,0.1-1,0.2-1.4,0.2c-1,0-1.9-0.3-2.7-0.9c-2.1-1.4-3.6-4.6-4.4-6.3l-0.1-0.3l0.3,0c0.4,0,0.9,0,1.4,0c2,0,4.7,0.2,6.3,1.4
			c1.1,0.8,1.7,1.9,1.9,3.5c0,0.4,0,0.7,0,1.1L-720.3-595.3z M-733.3-595.9l-0.1,0.5l-0.3-0.4c-0.7-0.8-1.2-1.3-1.2-1.4
			c-0.1-0.1-0.3-0.2-0.4-0.2c-0.1,0-0.2,0-0.3,0.1c-0.2,0.2-0.3,0.5-0.1,0.8c0.1,0.1,0.4,0.6,1.1,1.3l0.3,0.3l-0.5,0.1
			c-0.2,0-0.3,0-0.5,0c-0.7,0-1.3-0.2-1.9-0.7c-1.4-1.2-2.5-3.7-3-5.1l-0.1-0.4l0.4,0.1c1.5,0.2,4.2,0.8,5.6,1.9
			C-733.5-598.2-733.1-597.1-733.3-595.9z M-723.2-587.7c0.1,0.3,0.3,0.4,0.5,0.4c0,0,0.1,0,0.1,0c0,0,1.4-0.3,3.2-0.5l0.2,0.5
			c-1.1,0.7-2.2,1.2-3,1.4c-0.2,0.1-0.5,0.1-0.7,0.1c-0.9,0-1.7-0.5-2.6-1.1c-0.3-0.2-0.5-0.4-0.8-0.5c-0.6-0.3-1.2-0.7-1.9-1
			l-0.4-0.2l0.4-0.3c1.1-0.7,2.9-1.5,5.1-1.5c0.7,0,1.4,0.1,2.1,0.3c0.6,0.1,1.2,0.4,1.8,0.7l0.7,0.4l-0.8,0.1
			c-1.8,0.2-3.2,0.5-3.2,0.5C-723.1-588.3-723.3-588-723.2-587.7z M-720.7-618.9c-0.3,0-0.6,0.3-0.6,0.6v1.8l0,0.4
			c0,0-0.4-0.3-0.5-0.3c-0.8-0.6-1.3-1.5-1.3-2.5c0-2,1.3-4.5,2.1-5.9l0.2-0.4l0.2,0.4c0.2,0.4,0.5,0.8,0.8,1.4
			c0.9,1.8,1.4,3.3,1.5,4.5c0,1.1-0.5,2.1-1.4,2.7l-0.4,0.3v-2.3C-720.1-618.7-720.4-618.9-720.7-618.9z M-713.4-612.2
			c0-0.3-0.3-0.5-0.6-0.5h0c-0.2,0-0.3,0.1-0.4,0.2c-0.1,0.1-0.2,0.3-0.2,0.4l0.1,1.8l-0.4-0.3c-0.7-0.5-1-1.3-1-2.2
			c0-1.6,1-3.7,1.8-5.1l0.2-0.4l0.2,0.4c0.7,1.2,1.8,3.4,1.9,5.1c0,0.9-0.3,1.7-1,2.2l-0.5,0.4L-713.4-612.2z M-706.7-642.9
			L-706.7-642.9c0-0.1,0-0.2-0.1-0.2c0,0,0-0.1-0.1-0.1c0,0,0-0.1-0.1-0.1c0,0,0,0-0.1-0.1c0,0-0.1,0-0.1-0.1c0,0-0.1,0-0.2-0.1l0,0
			l-0.1,0l-0.1,0c0,0-0.1,0-0.1,0c0,0-0.1,0-0.1,0.1c0,0-0.1,0-0.1,0.1c0,0,0,0.1-0.1,0.1c0,0,0,0.1-0.1,0.1c0,0,0,0.1,0,0.1
			c0,0,0,0.1,0,0.1l-0.2,2.7l-0.4-0.2c-0.8-0.5-1.7-1.5-1.7-3.1c0-2.3,1.5-5.4,2.5-7l0.2-0.4l0.2,0.3c0.4,0.6,0.7,1.2,1,1.7
			c1.1,2,1.7,3.8,1.7,5.2c0,1.7-0.9,2.7-1.7,3.2l-0.4,0.2L-706.7-642.9z M-701.2-612.2l0,1.4l0,0.4l-0.4-0.3c-0.7-0.6-1-1.3-1-2.2
			c0-1.6,1-3.6,1.9-5.1l0.2-0.4l0.2,0.4c0.7,1.2,1.8,3.4,1.8,5.1c0,0.9-0.4,1.7-1,2.2l-0.4,0.3l0.1-1.8c0-0.2-0.1-0.3-0.2-0.4
			c-0.1-0.1-0.2-0.2-0.4-0.2C-700.9-612.7-701.2-612.5-701.2-612.2z M-693.9-618.9c-0.3,0-0.6,0.3-0.6,0.6v2.3l-0.4-0.3
			c-0.9-0.6-1.4-1.6-1.4-2.7c0-2,1.4-4.5,2.2-5.8l0.2-0.4l0.2,0.4c0.6,1.1,2.1,3.9,2.1,5.9c0,1.4-0.8,2.2-1.4,2.6l-0.4,0.3v-2.3
			C-693.4-618.7-693.6-618.9-693.9-618.9z M-680.2-599c1.4-1.2,4.1-1.7,5.6-1.9l0.4-0.1l-0.1,0.4c-0.5,1.4-1.6,3.9-3,5.1
			c-0.6,0.5-1.2,0.7-1.9,0.7c-0.2,0-0.3,0-0.5,0l-0.5-0.1l0.3-0.3c0.7-0.7,1.1-1.3,1.1-1.3c0.2-0.2,0.1-0.6-0.1-0.8
			c-0.1-0.1-0.2-0.1-0.3-0.1c-0.2,0-0.3,0.1-0.4,0.2c0,0-0.4,0.6-1.2,1.3l-0.3,0.4l-0.1-0.5C-681.5-597.1-681.2-598.2-680.2-599z
			 M-695.1-589.4c0.6-0.3,1.2-0.5,1.8-0.7c0.7-0.2,1.4-0.3,2.1-0.3c1.3,0,2.5,0.3,3.8,0.8c0.4,0.2,0.8,0.4,1.2,0.7l0.4,0.3l-0.4,0.2
			c-0.7,0.3-1.4,0.6-1.9,1c-0.3,0.2-0.6,0.4-0.9,0.6c-0.9,0.6-1.6,1.1-2.6,1.1c-0.2,0-0.5,0-0.7-0.1c-0.9-0.2-1.9-0.7-3-1.4l0.2-0.5
			c1.8,0.2,3.2,0.5,3.2,0.5c0,0,0.1,0,0.1,0c0.3,0,0.5-0.2,0.5-0.4c0-0.1,0-0.3-0.1-0.4c-0.1-0.1-0.2-0.2-0.4-0.2
			c-0.1,0-1.4-0.3-3.2-0.5l-0.8-0.1L-695.1-589.4z M-692.5-600.4c1.7-1.1,4.4-1.4,6.3-1.4c0.5,0,1,0,1.4,0l0.3,0l-0.1,0.3
			c-0.2,0.5-0.5,1.2-0.9,2c-1.1,2-2.3,3.6-3.4,4.4c-0.8,0.6-1.7,0.9-2.7,0.9c-0.5,0-0.9-0.1-1.4-0.2l-0.5-0.1l3.6-2.6
			c0.2-0.2,0.3-0.5,0.1-0.8c-0.1-0.1-0.3-0.2-0.5-0.2c-0.1,0-0.2,0-0.3,0.1l-3.7,2.8l0-0.4C-694.5-597-694.3-599.1-692.5-600.4z
			 M-676.8-607.9l0.4,0.2l-0.4,0.2c-0.4,0.2-0.9,0.5-1.4,0.7c-1.8,0.9-3.3,1.3-4.5,1.3h0c-1.1,0-2-0.5-2.6-1.4l-0.3-0.4h2.3
			c0.3,0,0.6-0.3,0.6-0.6c0-0.3-0.3-0.6-0.6-0.6h-1.8l-0.4,0l0.3-0.4c0-0.1,0.1-0.1,0.1-0.2c0.6-0.8,1.5-1.2,2.6-1.2c0,0,0,0,0,0
			C-680.7-610.1-678.1-608.7-676.8-607.9z M-672.9-614.5c-0.3,0.9-0.9,1.4-1.8,1.7l-0.5,0.2l0.2-0.5c0.3-0.8,0.4-1.4,0.5-1.6
			c0.1-0.3-0.1-0.6-0.4-0.7c0,0-0.1,0-0.1,0c-0.3,0-0.5,0.2-0.5,0.4c-0.1,0.5-0.3,1.2-0.6,1.8l-0.2,0.4l-0.3-0.3
			c-0.1-0.1-0.2-0.3-0.3-0.4c-0.5-0.9-0.6-1.8-0.2-2.7c0.7-1.7,2.8-3.5,4-4.4l0.3-0.3l0.1,0.4C-672.5-618.9-672.2-616.2-672.9-614.5
			z"/>
	</g>
</g>
<g>
	<g>
		<g>
			<g>
				<path class="st0" d="M-707.3-560.8c-3.7-3.7-11.7-5.4-23.1-5c-8.7,0.3-16.4,1.8-16.4,1.8l-0.2-0.8c0.1,0,7.8-1.5,16.6-1.8
					c11.8-0.4,19.8,1.3,23.7,5.3L-707.3-560.8z"/>
			</g>
		</g>
		<g>
			<g>
				<path class="st0" d="M-707.3-560.8l-0.6-0.6c3.9-3.9,11.9-5.7,23.7-5.3c8.8,0.3,16.5,1.8,16.6,1.8l-0.2,0.8
					c-0.1,0-7.7-1.5-16.4-1.8C-695.7-566.2-703.6-564.5-707.3-560.8z"/>
			</g>
		</g>
	</g>
	<g>
		<g>
			<g>
				<path class="st0" d="M-707.3-563.9c-3.7-3.7-11.5-5.3-22.7-4.6c-8.5,0.5-16,2.1-16.1,2.1l-0.2-0.8c0.1,0,7.6-1.7,16.2-2.2
					c11.6-0.7,19.5,1,23.4,4.9L-707.3-563.9z"/>
			</g>
		</g>
		<g>
			<g>
				<path class="st0" d="M-707.3-563.9l-0.6-0.6c3.9-3.9,11.8-5.6,23.4-4.9c8.6,0.5,16.1,2.1,16.2,2.2l-0.2,0.8
					c-0.1,0-7.6-1.6-16.1-2.1C-695.8-569.2-703.6-567.6-707.3-563.9z"/>
			</g>
		</g>
	</g>
	<g>
		<g>
			<g>
				<path class="st0" d="M-707.3-566.9c-3.7-3.7-11.4-5.1-22.3-4.1c-8.3,0.7-15.6,2.6-15.7,2.6l-0.2-0.8c0.1,0,7.4-1.9,15.8-2.7
					c11.4-1,19.1,0.5,23,4.4L-707.3-566.9z"/>
			</g>
		</g>
		<g>
			<g>
				<path class="st0" d="M-707.3-566.9l-0.6-0.6c3.9-3.9,11.7-5.5,23-4.6c8.4,0.6,15.8,2.4,15.8,2.4l-0.2,0.8
					c-0.1,0-7.4-1.8-15.7-2.4C-695.9-572.1-703.6-570.6-707.3-566.9z"/>
			</g>
		</g>
	</g>
</g>
<g>
	<g>
		<g>
			<path class="st1" d="M-707.3-557.8"/>
		</g>
		<g>
			<path class="st1" d="M-707.3-558.2c0.5,0,1,0,1.4-0.2c0.4-0.1,0.9-0.3,1.2-0.6c0.4-0.3,0.6-0.6,0.9-1c0.1-0.2,0.2-0.4,0.3-0.6
				c0-0.1,0.1-0.2,0.1-0.3c0-0.1,0-0.1,0-0.2c0-0.1,0-0.1,0-0.1v0l0-0.4l0.4,0l36.1-0.2v1.2l-36.1-0.2l0.4-0.4l0,0
				c0,0.1,0,0.2,0,0.2c0,0.1,0,0.1,0,0.2c0,0.1-0.1,0.3-0.1,0.4c-0.1,0.3-0.2,0.5-0.3,0.8c-0.3,0.5-0.6,1-1.1,1.3
				c-0.5,0.3-1,0.6-1.5,0.7c-0.5,0.1-1.1,0.2-1.6,0.2V-558.2z"/>
		</g>
	</g>
	<g>
		<g>
			<path class="st1" d="M-707.3-557.8"/>
		</g>
		<g>
			<path class="st1" d="M-707.3-557.3c-0.5,0-1.1-0.1-1.6-0.2c-0.5-0.1-1.1-0.4-1.5-0.7c-0.5-0.3-0.8-0.8-1.1-1.3
				c-0.1-0.3-0.2-0.5-0.3-0.8c0-0.1-0.1-0.3-0.1-0.4c0-0.1,0-0.1,0-0.2c0-0.1,0-0.1,0-0.2l0,0l0.4,0.4l-36.1,0.2v-1.2l36.1,0.2
				l0.4,0l0,0.4v0c0,0,0,0.1,0,0.1c0,0.1,0,0.1,0,0.2c0,0.1,0,0.2,0.1,0.3c0.1,0.2,0.1,0.4,0.3,0.6c0.2,0.4,0.5,0.7,0.9,1
				c0.4,0.3,0.8,0.5,1.2,0.6c0.4,0.1,0.9,0.2,1.4,0.2V-557.3z"/>
		</g>
	</g>
</g>
<g>
	<g>
		<path class="st0" d="M128.7,52l-4.9-6.8h-6V52h-2V34.5h8.6c3.8,0,6.1,2.1,6.1,5.4c0,2.9-1.5,4.7-4.3,5.2l5.1,6.9H128.7z
			 M124.1,43.3c3,0,4.3-1,4.3-3.4c0-2.3-1.4-3.4-4.2-3.4h-6.5v6.9H124.1z"/>
		<path class="st0" d="M128.9,51.7l-4.9-6.8h-6.5v6.8H116v-17h8.3c3.6,0,5.8,2,5.8,5.1c0,2.9-1.5,4.6-4.6,5l5.1,6.9H128.9z
			 M124.1,43.6c3.2,0,4.6-1.1,4.6-3.7c0-3.1-2.4-3.7-4.5-3.7h-6.8v7.5H124.1z"/>
		<path class="st0" d="M128.8,51.8l-4.9-6.8h-6.3v6.8h-1.6V34.7h8.4c3.6,0,5.9,2,5.9,5.2c0,2.9-1.5,4.6-4.5,5.1l5.1,6.9H128.8z
			 M124.1,43.5c3.1,0,4.5-1.1,4.5-3.6c0-3-2.4-3.6-4.4-3.6h-6.7v7.3H124.1z"/>
		<path class="st0" d="M129,51.5l-4.9-6.8h-6.8v6.8h-1V35h8.1c3.5,0,5.6,1.9,5.6,4.9c0,2.9-1.6,4.5-4.7,4.8l5,6.8H129z M117.2,43.8
			h6.9c3.2,0,4.8-1.1,4.8-3.9c0-2.6-1.7-3.9-4.7-3.9h-7V43.8z"/>
		<polygon class="st0" points="142.3,52 134.5,34.5 136.7,34.5 143.2,49.1 149.6,34.5 151.8,34.5 144,52 		"/>
		<polygon class="st0" points="142.5,51.7 134.9,34.8 136.5,34.8 143.2,49.9 149.8,34.8 151.3,34.8 143.8,51.7 		"/>
		<polygon class="st0" points="142.4,51.8 134.8,34.7 136.6,34.7 143.2,49.6 149.7,34.7 151.5,34.7 143.9,51.8 		"/>
		<path class="st0" d="M151,35l-7.3,16.6h-1.1L135.3,35h1.1l6.8,15.4l6.7-15.4H151z"/>
		<path class="st0" d="M164.5,52.4c-5.3,0-8.9-3.8-8.9-9.1c0-5.4,3.7-9.2,8.9-9.2c5.3,0,9,3.8,9,9.2
			C173.4,48.7,169.8,52.4,164.5,52.4z M164.5,36.1c-4.2,0-6.9,2.8-6.9,7.2c0,4.3,2.8,7.2,6.9,7.2c4.2,0,6.9-2.8,6.9-7.2
			C171.4,38.9,168.6,36.1,164.5,36.1z"/>
		<path class="st0" d="M164.5,52.1c-5.1,0-8.6-3.6-8.6-8.8c0-5.2,3.6-8.9,8.6-8.9c5.1,0,8.7,3.6,8.7,8.9
			C173.1,48.6,169.6,52.1,164.5,52.1z M164.5,35.8c-4.4,0-7.2,2.9-7.2,7.5c0,4.5,2.9,7.5,7.2,7.5c4.4,0,7.2-2.9,7.2-7.5
			C171.7,38.7,168.8,35.8,164.5,35.8z"/>
		<path class="st0" d="M164.5,52.2c-5.1,0-8.7-3.7-8.7-8.9c0-5.3,3.6-9,8.7-9c5.2,0,8.8,3.7,8.8,9C173.2,48.6,169.7,52.2,164.5,52.2
			z M164.5,35.9c-4.3,0-7.1,2.9-7.1,7.4c0,4.5,2.8,7.4,7.1,7.4c4.3,0,7.1-2.9,7.1-7.4C171.6,38.8,168.8,35.9,164.5,35.9z"/>
		<path class="st0" d="M164.5,34.6c5,0,8.5,3.5,8.5,8.7s-3.5,8.6-8.5,8.6c-4.9,0-8.4-3.4-8.4-8.6S159.5,34.6,164.5,34.6z
			 M164.5,35.6c-4.3,0-7.4,2.9-7.4,7.7c0,4.7,3,7.7,7.4,7.7c4.4,0,7.4-2.9,7.4-7.7S168.8,35.6,164.5,35.6z"/>
		<path class="st0" d="M192.2,52l-4.9-6.8h-6V52h-2V34.5h8.6c3.8,0,6.1,2.1,6.1,5.4c0,2.9-1.5,4.7-4.3,5.2l5.1,6.9H192.2z
			 M187.6,43.3c3,0,4.3-1,4.3-3.4c0-2.3-1.4-3.4-4.2-3.4h-6.5v6.9H187.6z"/>
		<path class="st0" d="M192.3,51.7l-4.9-6.8h-6.5v6.8h-1.4v-17h8.3c3.6,0,5.8,2,5.8,5.1c0,2.9-1.5,4.6-4.6,5l5.1,6.9H192.3z
			 M187.6,43.6c3.2,0,4.6-1.1,4.6-3.7c0-3.1-2.4-3.7-4.5-3.7h-6.8v7.5H187.6z"/>
		<path class="st0" d="M192.3,51.8l-4.9-6.8H181v6.8h-1.6V34.7h8.4c3.6,0,5.9,2,5.9,5.2c0,2.9-1.5,4.6-4.5,5.1l5.1,6.9H192.3z
			 M187.6,43.5c3.1,0,4.5-1.1,4.5-3.6c0-3-2.4-3.6-4.4-3.6H181v7.3H187.6z"/>
		<path class="st0" d="M192.4,51.5l-4.9-6.8h-6.8v6.8h-1V35h8.1c3.5,0,5.6,1.9,5.6,4.9c0,2.9-1.6,4.5-4.7,4.8l5,6.8H192.4z
			 M180.7,43.8h6.9c3.2,0,4.8-1.1,4.8-3.9c0-2.6-1.7-3.9-4.7-3.9h-7V43.8z"/>
		<polygon class="st0" points="199.9,52 199.9,34.5 213.4,34.5 213.4,36.4 201.9,36.4 201.9,42 210.1,42 210.1,43.9 201.9,43.9 
			201.9,50.1 213.4,50.1 213.4,52 		"/>
		<polygon class="st0" points="200.2,51.7 200.2,34.8 213.1,34.8 213.1,36.1 201.6,36.1 201.6,42.3 209.8,42.3 209.8,43.6 
			201.6,43.6 201.6,50.4 213.1,50.4 213.1,51.7 		"/>
		<polygon class="st0" points="200.1,51.8 200.1,34.7 213.2,34.7 213.2,36.2 201.7,36.2 201.7,42.2 209.9,42.2 209.9,43.7 
			201.7,43.7 201.7,50.3 213.2,50.3 213.2,51.8 		"/>
		<path class="st0" d="M201.4,35.9v6.5h8.1v1h-8.1v7.1h11.5v1h-12.5V35h12.5v1H201.4z"/>
		<path class="st0" d="M226,52V34.5h6.3c6,0,9.8,3.4,9.8,8.8c0,5.4-3.7,8.8-9.8,8.8H226z M232.5,50.1c4.6,0,7.5-2.6,7.5-6.8
			c0-4.2-3-6.8-7.5-6.8H228v13.7H232.5z"/>
		<path class="st0" d="M226.3,51.7v-17h6c5.8,0,9.5,3.2,9.5,8.5c0,5.2-3.6,8.5-9.5,8.5H226.3z M232.5,50.4c4.8,0,7.8-2.7,7.8-7.1
			c0-4.3-3.1-7.1-7.8-7.1h-4.8v14.3H232.5z"/>
		<path class="st0" d="M226.2,51.8V34.7h6.1c5.9,0,9.6,3.3,9.6,8.6c0,5.3-3.7,8.6-9.6,8.6H226.2z M232.5,50.3c4.8,0,7.7-2.7,7.7-7
			c0-4.3-3-7-7.7-7h-4.7v14.1H232.5z"/>
		<path class="st0" d="M232.3,51.5h-5.8V35h5.8c6,0,9.3,3.4,9.3,8.3C241.6,48.2,238.3,51.5,232.3,51.5z M232.5,35.9h-5v14.7h5
			c4.7,0,8-2.6,8-7.3C240.5,38.8,237.5,35.9,232.5,35.9z"/>
		<path class="st0" d="M255.4,52.4c-5.3,0-8.9-3.8-8.9-9.1c0-5.4,3.7-9.2,8.9-9.2c5.3,0,9,3.8,9,9.2
			C264.3,48.7,260.7,52.4,255.4,52.4z M255.4,36.1c-4.2,0-6.9,2.8-6.9,7.2c0,4.3,2.8,7.2,6.9,7.2c4.2,0,6.9-2.8,6.9-7.2
			C262.3,38.9,259.6,36.1,255.4,36.1z"/>
		<path class="st0" d="M255.4,52.1c-5.1,0-8.6-3.6-8.6-8.8c0-5.2,3.6-8.9,8.6-8.9c5.1,0,8.7,3.6,8.7,8.9
			C264,48.6,260.6,52.1,255.4,52.1z M255.4,35.8c-4.4,0-7.2,2.9-7.2,7.5c0,4.5,2.9,7.5,7.2,7.5c4.4,0,7.2-2.9,7.2-7.5
			C262.6,38.7,259.8,35.8,255.4,35.8z"/>
		<path class="st0" d="M255.4,52.2c-5.1,0-8.7-3.7-8.7-8.9c0-5.3,3.6-9,8.7-9c5.2,0,8.8,3.7,8.8,9C264.1,48.6,260.6,52.2,255.4,52.2
			z M255.4,35.9c-4.3,0-7.1,2.9-7.1,7.4c0,4.5,2.8,7.4,7.1,7.4c4.3,0,7.1-2.9,7.1-7.4C262.5,38.8,259.7,35.9,255.4,35.9z"/>
		<path class="st0" d="M255.4,34.6c5,0,8.5,3.5,8.5,8.7s-3.5,8.6-8.5,8.6c-4.9,0-8.4-3.4-8.4-8.6S250.5,34.6,255.4,34.6z
			 M255.4,35.6c-4.3,0-7.4,2.9-7.4,7.7c0,4.7,3,7.7,7.4,7.7c4.4,0,7.4-2.9,7.4-7.7S259.7,35.6,255.4,35.6z"/>
		<path class="st0" d="M104.6,76.5c-2.6,0-5-1-6.7-2.7c-1.7-1.7-2.5-3.9-2.5-6.5c0-2.5,0.8-4.7,2.5-6.4c1.7-1.7,4.1-2.7,6.7-2.7
			l0.1,0c2.8,0,5.5,1.1,7.5,3l0.3,0.3l-2.3,2.6l-0.4-0.3c-1.3-1.2-3.1-1.9-4.8-1.9c-3.2,0-5.4,2.2-5.4,5.4c0,3.2,2.2,5.4,5.4,5.4
			c1.7,0,3.5-0.7,4.8-1.8l0.4-0.3l2.3,2.6l-0.3,0.3C110.2,75.4,107.4,76.5,104.6,76.5L104.6,76.5z"/>
		<path class="st0" d="M104.6,76.2c-2.5,0-4.8-0.9-6.5-2.6c-1.6-1.6-2.4-3.8-2.4-6.3c0-2.4,0.8-4.6,2.4-6.2c1.6-1.7,4-2.6,6.5-2.6
			l0.1,0c2.7,0,5.4,1,7.3,2.9l0.1,0.1l-1.9,2.2l-0.1-0.1c-1.4-1.2-3.2-1.9-5-1.9c-3.4,0-5.7,2.4-5.7,5.7c0,3.4,2.4,5.7,5.7,5.7
			c1.8,0,3.6-0.7,5-1.9l0.1-0.1l2,2.1l-0.1,0.1C110,75.1,107.4,76.2,104.6,76.2L104.6,76.2z"/>
		<path class="st0" d="M104.6,76.3c-2.6,0-4.9-0.9-6.6-2.6c-1.6-1.7-2.5-3.8-2.4-6.3c0-2.5,0.8-4.6,2.4-6.3c1.7-1.7,4-2.6,6.5-2.6
			l0.1,0c2.7,0,5.4,1.1,7.3,2.9l0.2,0.2l-2.1,2.3l-0.2-0.2c-1.4-1.2-3.2-1.9-5-1.9c-3.3,0-5.6,2.3-5.6,5.6c0,3.3,2.3,5.6,5.6,5.6
			c1.8,0,3.6-0.7,5-1.9l0.2-0.2l2.1,2.3l-0.2,0.2C110.1,75.2,107.4,76.3,104.6,76.3L104.6,76.3z"/>
		<path class="st0" d="M104.7,58.7c2.7,0,5.3,1,7.1,2.8l-1.7,1.9c-1.4-1.2-3.3-2-5.2-2c-3.4,0-5.9,2.3-5.9,5.9
			c0,3.6,2.6,5.9,5.9,5.9c1.9,0,3.8-0.7,5.2-2l1.7,1.9c-1.9,1.8-4.4,2.8-7.1,2.8c-4.8,0-8.9-3.4-8.8-8.7
			C95.8,62,99.9,58.6,104.7,58.7z"/>
		<path class="st0" d="M126,76.5c-5.6,0-9.3-3.7-9.3-9.1c0-5.5,3.7-9.2,9.3-9.2c5.5,0,9.3,3.7,9.3,9.2
			C135.2,72.8,131.5,76.5,126,76.5z M126,61.9c-3.2,0-5.1,2-5.1,5.5c0,3.4,1.9,5.4,5.1,5.4c3.2,0,5.1-2,5.1-5.4
			C131.1,63.9,129.2,61.9,126,61.9z"/>
		<path class="st0" d="M126,76.2c-5.4,0-9-3.5-9-8.8c0-5.3,3.6-8.9,9-8.9c5.4,0,9,3.6,9,8.9C134.9,72.6,131.3,76.2,126,76.2z
			 M126,61.6c-3.4,0-5.4,2.2-5.4,5.8c0,3.6,2,5.7,5.4,5.7c3.4,0,5.4-2.1,5.4-5.7C131.4,63.8,129.4,61.6,126,61.6z"/>
		<path class="st0" d="M126,76.3c-5.4,0-9.1-3.6-9.1-8.9c0-5.4,3.7-9,9.1-9c5.4,0,9.1,3.6,9.1,9C135,72.7,131.4,76.3,126,76.3z
			 M126,61.7c-3.3,0-5.3,2.1-5.3,5.7c0,3.5,2,5.6,5.3,5.6c3.4,0,5.3-2,5.3-5.6C131.3,63.8,129.3,61.7,126,61.7z"/>
		<path class="st0" d="M126,58.7c5.3,0,8.8,3.5,8.8,8.7c0,5.2-3.5,8.6-8.8,8.6c-5.3,0-8.8-3.5-8.8-8.6
			C117.2,62.2,120.7,58.7,126,58.7z M126,61.4c-3.4,0-5.6,2.1-5.6,6c0,3.8,2.2,5.9,5.6,5.9c3.4,0,5.6-2.1,5.6-5.9
			C131.6,63.5,129.4,61.4,126,61.4z"/>
		<polygon class="st0" points="152.6,76.1 143.7,65 143.7,76.1 139.6,76.1 139.6,58.6 143.5,58.6 152.4,69.6 152.4,58.6 156.5,58.6 
			156.5,76.1 		"/>
		<polygon class="st0" points="152.8,75.8 143.4,64.2 143.4,75.8 139.9,75.8 139.9,58.9 143.4,58.9 152.7,70.5 152.7,58.9 
			156.2,58.9 156.2,75.8 		"/>
		<polygon class="st0" points="152.7,75.9 143.5,64.5 143.5,75.9 139.8,75.9 139.8,58.8 143.4,58.8 152.6,70.2 152.6,58.8 
			156.3,58.8 156.3,75.9 		"/>
		<path class="st0" d="M156,59.1v16.6h-3.1l-9.7-12v12h-3.1V59.1h3.2l9.6,12v-12H156z"/>
		<polygon class="st0" points="175.4,76.1 175.4,71.6 166.6,71.6 166.6,76.1 162.5,76.1 162.5,58.6 166.6,58.6 166.6,67.9 
			175.4,67.9 175.4,58.6 179.5,58.6 179.5,76.1 		"/>
		<polygon class="st0" points="175.7,75.8 175.7,71.3 166.3,71.3 166.3,75.8 162.8,75.8 162.8,58.9 166.3,58.9 166.3,68.2 
			175.7,68.2 175.7,58.9 179.2,58.9 179.2,75.8 		"/>
		<polygon class="st0" points="175.6,75.9 175.6,71.4 166.4,71.4 166.4,75.9 162.7,75.9 162.7,58.8 166.4,58.8 166.4,68.1 
			175.6,68.1 175.6,58.8 179.3,58.8 179.3,75.9 		"/>
		<path class="st0" d="M179,59.1v16.6h-3.1v-4.5h-9.8v4.5H163V59.1h3.1v9.4h9.8v-9.4H179z"/>
		<polygon class="st0" points="185.5,76.1 185.5,58.6 200.1,58.6 200.1,62.2 189.6,62.2 189.6,65.3 196.7,65.3 196.7,68.9 
			189.6,68.9 189.6,72.4 200.1,72.4 200.1,76.1 		"/>
		<polygon class="st0" points="185.8,75.8 185.8,58.9 199.8,58.9 199.8,61.9 189.3,61.9 189.3,65.6 196.4,65.6 196.4,68.6 
			189.3,68.6 189.3,72.7 199.8,72.7 199.8,75.8 		"/>
		<polygon class="st0" points="185.7,75.9 185.7,58.8 199.9,58.8 199.9,62 189.4,62 189.4,65.5 196.5,65.5 196.5,68.7 189.4,68.7 
			189.4,72.6 199.9,72.6 199.9,75.9 		"/>
		<path class="st0" d="M199.6,72.9v2.7H186V59.1h13.6v2.7h-10.5v4h7.2v2.7h-7.2v4.5H199.6z"/>
		<path class="st0" d="M213.6,76.5c-2.6,0-5-1-6.7-2.7c-1.7-1.7-2.5-3.9-2.5-6.5c0-2.5,0.8-4.7,2.5-6.4c1.7-1.7,4.1-2.7,6.7-2.7
			l0.1,0c2.8,0,5.5,1.1,7.5,3l0.3,0.3l-2.3,2.6l-0.4-0.3c-1.3-1.2-3.1-1.9-4.8-1.9c-3.2,0-5.4,2.2-5.4,5.4c0,3.2,2.2,5.4,5.4,5.4
			c1.7,0,3.5-0.7,4.8-1.8l0.4-0.3l2.3,2.6l-0.3,0.3C219.3,75.4,216.5,76.5,213.6,76.5L213.6,76.5z"/>
		<path class="st0" d="M213.6,76.2c-2.5,0-4.8-0.9-6.5-2.6c-1.6-1.6-2.4-3.8-2.4-6.3c0-2.4,0.8-4.6,2.4-6.2c1.6-1.7,4-2.6,6.5-2.6
			l0.1,0c2.7,0,5.4,1,7.3,2.9l0.1,0.1l-1.9,2.2l-0.1-0.1c-1.4-1.2-3.2-1.9-5-1.9c-3.4,0-5.7,2.4-5.7,5.7c0,3.4,2.4,5.7,5.7,5.7
			c1.8,0,3.6-0.7,5-1.9l0.1-0.1l2,2.1l-0.1,0.1C219.1,75.1,216.5,76.2,213.6,76.2L213.6,76.2z"/>
		<path class="st0" d="M213.6,76.3c-2.6,0-4.9-0.9-6.6-2.6c-1.6-1.7-2.5-3.8-2.4-6.3c0-2.5,0.8-4.6,2.4-6.3c1.7-1.7,4-2.6,6.5-2.6
			l0.1,0c2.7,0,5.4,1.1,7.3,2.9l0.2,0.2l-2.1,2.3l-0.2-0.2c-1.4-1.2-3.2-1.9-5-1.9c-3.3,0-5.6,2.3-5.6,5.6c0,3.3,2.3,5.6,5.6,5.6
			c1.8,0,3.6-0.7,5-1.9l0.2-0.2l2.1,2.3l-0.2,0.2C219.2,75.2,216.5,76.3,213.6,76.3L213.6,76.3z"/>
		<path class="st0" d="M213.7,58.7c2.7,0,5.3,1,7.1,2.8l-1.7,1.9c-1.4-1.2-3.3-2-5.2-2c-3.4,0-5.9,2.3-5.9,5.9
			c0,3.6,2.6,5.9,5.9,5.9c1.9,0,3.8-0.7,5.2-2l1.7,1.9c-1.9,1.8-4.4,2.8-7.1,2.8c-4.8,0-8.9-3.4-8.8-8.7
			C204.9,62,209,58.6,213.7,58.7z"/>
		<rect x="226.9" y="58.6" class="st0" width="4.1" height="17.6"/>
		<rect x="227.2" y="58.9" class="st0" width="3.5" height="17"/>
		<rect x="227.1" y="58.8" class="st0" width="3.7" height="17.2"/>
		<path class="st0" d="M227.4,59.1h3.1v16.6h-3.1V59.1z"/>
		<polygon class="st0" points="254.1,76.1 254.1,66.1 249.2,76.1 245.3,76.1 240.5,66.1 240.5,76.1 236.5,76.1 236.5,58.6 241,58.6 
			247.3,71.4 253.5,58.6 258.1,58.6 258.1,76.1 		"/>
		<polygon class="st0" points="254.4,75.8 254.4,64.7 249.1,75.8 245.5,75.8 240.2,64.7 240.2,75.8 236.8,75.8 236.8,58.9 
			240.8,58.9 247.3,72.1 253.7,58.9 257.8,58.9 257.8,75.8 		"/>
		<polygon class="st0" points="254.3,75.9 254.3,65.2 249.1,75.9 245.5,75.9 240.3,65.2 240.3,75.9 236.7,75.9 236.7,58.8 
			240.9,58.8 247.3,71.9 253.7,58.8 257.9,58.8 257.9,75.9 		"/>
		<path class="st0" d="M257.6,59.1v16.6h-3V63.9l-5.6,11.8h-3.3L240,63.9v11.8h-3V59.1h3.8l6.6,13.5l6.6-13.5H257.6z"/>
		<polygon class="st0" points="263.7,76.1 263.7,58.6 278.2,58.6 278.2,62.2 267.7,62.2 267.7,65.3 274.9,65.3 274.9,68.9 
			267.7,68.9 267.7,72.4 278.3,72.4 278.3,76.1 		"/>
		<polygon class="st0" points="264,75.8 264,58.9 277.9,58.9 277.9,61.9 267.4,61.9 267.4,65.6 274.6,65.6 274.6,68.6 267.4,68.6 
			267.4,72.7 278,72.7 278,75.8 		"/>
		<polygon class="st0" points="263.9,75.9 263.9,58.8 278,58.8 278,62 267.5,62 267.5,65.5 274.7,65.5 274.7,68.7 267.5,68.7 
			267.5,72.6 278.1,72.6 278.1,75.9 		"/>
		<path class="st0" d="M277.8,72.9v2.7h-13.6V59.1h13.6v2.7h-10.5v4h7.2v2.7h-7.2v4.5H277.8z"/>
		<polygon class="st0" points="295.2,76.1 286.3,65 286.3,76.1 282.2,76.1 282.2,58.6 286.1,58.6 295,69.6 295,58.6 299.1,58.6 
			299.1,76.1 		"/>
		<polygon class="st0" points="295.4,75.8 286,64.2 286,75.8 282.5,75.8 282.5,58.9 286,58.9 295.3,70.5 295.3,58.9 298.8,58.9 
			298.8,75.8 		"/>
		<polygon class="st0" points="295.3,75.9 286.1,64.5 286.1,75.9 282.4,75.9 282.4,58.8 286,58.8 295.2,70.2 295.2,58.8 298.9,58.8 
			298.9,75.9 		"/>
		<path class="st0" d="M298.6,59.1v16.6h-3.1l-9.7-12v12h-3.1V59.1h3.2l9.6,12v-12H298.6z"/>
		<polygon class="st0" points="309.1,76.1 309.1,62.3 303,62.3 303,58.6 319.2,58.6 319.2,62.3 313.1,62.3 313.1,76.1 		"/>
		<polygon class="st0" points="309.4,75.8 309.4,62 303.3,62 303.3,58.9 318.9,58.9 318.9,62 312.8,62 312.8,75.8 		"/>
		<polygon class="st0" points="309.3,75.9 309.3,62.1 303.2,62.1 303.2,58.8 319,58.8 319,62.1 312.9,62.1 312.9,75.9 		"/>
		<path class="st0" d="M318.7,61.8h-6v13.9h-3.1V61.8h-6v-2.7h15.1V61.8z"/>
		<path class="st0" d="M331.4,76.5c-5.6,0-9.3-3.7-9.3-9.1c0-5.5,3.7-9.2,9.3-9.2c5.5,0,9.3,3.7,9.3,9.2
			C340.7,72.8,337,76.5,331.4,76.5z M331.4,61.9c-3.2,0-5.1,2-5.1,5.5c0,3.4,1.9,5.4,5.1,5.4c3.2,0,5.1-2,5.1-5.4
			C336.5,63.9,334.6,61.9,331.4,61.9z"/>
		<path class="st0" d="M331.4,76.2c-5.4,0-9-3.5-9-8.8c0-5.3,3.6-8.9,9-8.9c5.4,0,9,3.6,9,8.9C340.4,72.6,336.8,76.2,331.4,76.2z
			 M331.4,61.6c-3.4,0-5.4,2.2-5.4,5.8c0,3.6,2,5.7,5.4,5.7c3.4,0,5.4-2.1,5.4-5.7C336.8,63.8,334.8,61.6,331.4,61.6z"/>
		<path class="st0" d="M331.4,76.3c-5.4,0-9.1-3.6-9.1-8.9c0-5.4,3.7-9,9.1-9c5.4,0,9.1,3.6,9.1,9C340.5,72.7,336.9,76.3,331.4,76.3
			z M331.4,61.7c-3.3,0-5.3,2.1-5.3,5.7c0,3.5,2,5.6,5.3,5.6c3.4,0,5.3-2,5.3-5.6C336.7,63.8,334.7,61.7,331.4,61.7z"/>
		<path class="st0" d="M331.4,58.7c5.3,0,8.8,3.5,8.8,8.7c0,5.2-3.5,8.6-8.8,8.6c-5.3,0-8.8-3.5-8.8-8.6
			C322.6,62.2,326.2,58.7,331.4,58.7z M331.4,61.4c-3.4,0-5.6,2.1-5.6,6c0,3.8,2.2,5.9,5.6,5.9c3.4,0,5.6-2.1,5.6-5.9
			C337,63.5,334.8,61.4,331.4,61.4z"/>
		<g>
			<polygon class="st0" points="101.9,34.1 104.2,29.5 106.6,29.5 103.9,34.1 			"/>
			<polygon class="st0" points="102.4,33.8 104.4,29.8 106.1,29.8 103.7,33.8 			"/>
			<polygon class="st0" points="102.2,33.9 104.4,29.7 106.3,29.7 103.8,33.9 			"/>
			<polygon class="st0" points="103.6,33.6 102.7,33.6 104.5,30 105.8,30 			"/>
			<polygon class="st0" points="109.7,52 103.1,37.2 96.4,52 94.2,52 102.3,34.5 104,34.5 112,52 			"/>
			<polygon class="st0" points="109.9,51.7 103.1,36.5 96.2,51.7 94.7,51.7 102.4,34.8 103.8,34.8 111.5,51.7 			"/>
			<polygon class="st0" points="109.9,51.8 103.1,36.7 96.3,51.8 94.5,51.8 102.4,34.7 103.8,34.7 111.7,51.8 			"/>
			<polygon class="st0" points="110.1,51.5 111.2,51.5 103.7,35 102.6,35 95,51.5 96.1,51.5 103.1,36 			"/>
		</g>
	</g>
	<g>
		<g>
			<path class="st1" d="M76.1,32.8c0-0.2-0.2-0.3-0.3-0.4c-0.1,0-0.1,0-0.2,0c-0.1,0-0.2,0-0.3,0.1c0,0-4.3,2.8-5.4,5.7
				c-1.1,2.6,0.8,4.5,1.1,4.8l0.1,0.1L71,43.2c-0.4,0.6-0.7,1.1-1.1,1.4l-0.1,0.1l-0.1-0.1c-1.7-0.8-3.1-1.2-4.4-1.2
				c-1.8,0-2.8,0.9-3.4,1.6c-0.3,0.3-0.5,0.7-0.7,1.1l-0.1,0.1h-3.8l4.4-5.8l0.2,0c0.2,0.1,0.4,0.1,0.7,0.1c0.3,0,0.5,0.1,0.7,0.1
				c1.3,0,2.4-0.5,3.4-1.4c2.6-2.5,3.7-8.2,3.8-8.5c0-0.2,0-0.4-0.1-0.5c-0.1-0.1-0.3-0.2-0.4-0.2c0,0-0.1,0-0.1,0
				c-0.2,0-6,1-8.6,3.5c-1.5,1.4-1.6,3-1.5,4.1c0.1,0.4,0.2,0.9,0.3,1.3l0.1,0.2L54.5,44v-4.2l0.1-0.1c0.4-0.2,0.7-0.4,1-0.6
				c0.8-0.6,1.7-1.6,1.7-3.4c0-0.4,0-0.9-0.1-1.4l0-0.1l0.1-0.1c0.1-0.1,0.1-0.2,0.1-0.3c0.2-2.1,1.7-4.1,4.3-5.6l0.2-0.1l0.1,0.1
				c0.3,0.2,0.5,0.4,0.8,0.6c0.7,0.4,1.4,0.6,2.1,0.6c0.6,0,1.1-0.1,1.7-0.3c2.9-1.2,5.8-5.4,5.9-5.6c0.1-0.2,0.1-0.3,0.1-0.5
				c-0.1-0.2-0.2-0.3-0.4-0.3c-0.1,0-2.3-0.5-4.6-0.5c-1.4,0-2.6,0.2-3.5,0.5c-1.7,0.7-2.3,1.9-2.6,2.8c-0.2,0.6-0.2,1.2-0.2,1.5
				l0,0.2l-0.1,0.1c-0.1,0.1-0.3,0.2-0.4,0.3c-1.2,0.8-2.2,1.8-3,2.8l-0.3,0.4l-0.1-0.5c-0.8-3.1-0.6-6,0.4-8.2c0,0,0-0.1,0.1-0.2
				l0.1-0.2l0.2,0.1c0.4,0.1,0.9,0.2,1.3,0.2c1.1,0,2.1-0.4,2.9-1.2c2.2-2.1,3.2-7,3.2-7.2c0-0.2,0-0.4-0.1-0.5
				c-0.1-0.1-0.3-0.2-0.4-0.2c0,0-0.1,0-0.1,0c-0.2,0-5.1,0.9-7.3,3c-1.9,1.8-1.4,4.1-0.8,5.2l0.1,0.1l-0.2,0.3
				c-0.6,1.3-0.9,2.7-1,4.2c-0.1,1.3,0.1,2.7,0.4,4.2L55.7,30c-0.6-1.1-1.1-1.9-1.1-1.9c-0.1-0.2-0.3-0.2-0.5-0.2
				c-0.2,0-0.4,0.1-0.5,0.2c-0.1,0.2-3.1,4.3-3.1,7.5c0,1.8,0.9,2.9,1.6,3.5c0.3,0.3,0.7,0.5,1.1,0.7l0.1,0.1V45l-5.8,4.9l0.1-4.3
				l0.1-0.1c0.6-0.2,2.5-1.3,2.5-3.7c0-2.8-2.6-6.6-2.7-6.8c-0.1-0.2-0.3-0.2-0.5-0.2c-0.2,0-0.4,0.1-0.5,0.2c0,0-2.7,3.9-2.7,6.8
				c0,2.4,1.9,3.5,2.4,3.7l0.2,0.1l-0.2,5.3L44,53l-1.3-18.3l2.1-2.1l0.1,0c0.5,0.2,0.9,0.2,1.4,0.2c1.1,0,2-0.4,2.8-1.2
				c2-2,2.8-6.5,2.8-6.7c0-0.2,0-0.4-0.2-0.5c-0.1-0.1-0.2-0.2-0.4-0.2c0,0-0.1,0-0.1,0c-0.2,0-4.7,0.9-6.7,2.9
				c-1.8,1.8-1.1,3.9-0.8,4.5L44,32l-1.3,1.3L42,23.7l3.9-2.3l0.1,0.1c0.5,0.3,1.4,0.9,2.6,0.9c0.7,0,1.4-0.2,2-0.5
				c2.7-1.5,4.9-5.9,5-6.1c0.1-0.2,0.1-0.4,0-0.5c-0.1-0.2-0.3-0.3-0.4-0.3c0,0-0.9-0.1-2.1-0.1c-1.7,0-4.1,0.2-5.7,1.1l-0.7,0.4
				l0.3-0.7c0.3-0.7,0.7-1.4,1.2-2.1l0.1-0.1l0.2,0c0.2,0,0.5,0.1,0.7,0.1c0.8,0,2-0.3,2.9-1.5c1.4-2,1.4-6,1.4-6.2
				c0-0.2-0.1-0.4-0.2-0.5c-0.1-0.1-0.2-0.1-0.3-0.1c-0.1,0-0.1,0-0.2,0c-0.2,0.1-3.8,1.5-5.2,3.5c-1.1,1.6-0.5,3.2-0.1,3.7l0.1,0.1
				l-0.1,0.1c-1.1,1.7-2.4,4.3-2.4,7.2c0,0.1,0,0.2,0.1,0.3l0.1,0.2l-3.3,1.9l-0.5-6.7l0.2-0.1c0.4-0.2,0.8-0.4,1.1-0.7
				c0.9-0.7,1.9-1.9,1.8-3.9c-0.1-3.6-3.4-8.4-3.6-8.6c-0.1-0.1-0.3-0.2-0.5-0.2c-0.2,0-0.4,0.1-0.5,0.2c-0.1,0.2-3.4,5.1-3.3,8.7
				c0,2,1.1,3.2,2,3.9c0.3,0.2,0.6,0.4,1,0.6l0.2,0.1l-0.5,6.7L36,20.6l0.1-0.2c0.1-0.1,0.1-0.2,0.1-0.3c0-2.9-1.3-5.5-2.4-7.2
				l-0.1-0.1l0.1-0.1c0.3-0.6,1-2.1-0.1-3.7c-1.4-2-5.1-3.5-5.2-3.5c-0.1,0-0.1,0-0.2,0c-0.1,0-0.2,0-0.3,0.1
				c-0.2,0.1-0.2,0.3-0.2,0.5c0,0.2,0,4.1,1.4,6.2c0.9,1.3,2.1,1.5,2.9,1.5c0.2,0,0.5,0,0.7-0.1l0.2,0l0.1,0.1
				c0.4,0.7,0.8,1.4,1.2,2.1l0.2,0.6L33.7,16c-1.6-0.9-4-1.1-5.7-1.1C26.8,15,26,15,25.9,15c-0.2,0-0.3,0.1-0.4,0.3
				c-0.1,0.2-0.1,0.4,0,0.5c0.1,0.2,2.3,4.6,5,6.1c0.7,0.4,1.3,0.5,2,0.5c1.2,0,2.2-0.6,2.6-0.9l0.1-0.1l3.9,2.3l-0.7,9.5L37.2,32
				l0.1-0.2c0.3-0.6,1-2.7-0.8-4.5c-2-2-6.5-2.9-6.7-2.9c0,0-0.1,0-0.1,0c-0.1,0-0.3,0.1-0.4,0.2c-0.1,0.1-0.2,0.3-0.2,0.5
				c0,0.2,0.8,4.7,2.8,6.7c0.8,0.8,1.7,1.2,2.8,1.2c0.5,0,0.9-0.1,1.4-0.2l0.1,0l2.1,2l0.1,0.1L37.2,53l-2.5-2.1l-0.2-5.3l0.2-0.1
				c0.6-0.3,2.4-1.3,2.4-3.7c0-2.9-2.7-6.7-2.7-6.8c-0.1-0.1-0.3-0.2-0.5-0.2c-0.2,0-0.4,0.1-0.5,0.2c-0.1,0.2-2.7,3.9-2.7,6.8
				c0,2.4,1.9,3.4,2.5,3.7l0.1,0.1l0.1,4.3L27.8,45v-5.1l0.1-0.1c0.4-0.2,0.8-0.4,1.1-0.7c0.8-0.6,1.7-1.7,1.6-3.5
				c0-3.2-3-7.3-3.1-7.5c-0.1-0.1-0.3-0.2-0.5-0.2c-0.2,0-0.4,0.1-0.5,0.2c0,0-0.5,0.8-1.1,1.9L25,29.8c0.3-1.5,0.4-2.9,0.4-4.2
				c-0.1-1.5-0.4-3-1-4.2l-0.2-0.3l0.1-0.1c0.6-1.1,1.1-3.4-0.8-5.2c-2.2-2.1-7-3-7.2-3c0,0-0.1,0-0.1,0c-0.2,0-0.3,0.1-0.4,0.2
				c-0.1,0.1-0.2,0.3-0.1,0.5c0,0,1,5,3.2,7.2c0.8,0.8,1.8,1.2,2.9,1.2c0.4,0,0.8-0.1,1.3-0.2l0.2-0.1l0.1,0.2
				c0.7,1.6,1.4,4.3,0.4,8.4l-0.1,0.5l-0.3-0.4c-0.7-1-1.8-1.9-3-2.8c-0.1-0.1-0.3-0.2-0.4-0.3l-0.1-0.1l0-0.1c0-0.4,0-0.9-0.2-1.5
				c-0.3-0.9-0.9-2.2-2.6-2.8c-0.9-0.4-2.1-0.5-3.5-0.5c-2.3,0-4.5,0.5-4.6,0.5c-0.2,0-0.3,0.2-0.4,0.3c-0.1,0.2,0,0.4,0.1,0.5
				c0.1,0.2,3,4.4,5.9,5.6c0.6,0.2,1.1,0.3,1.7,0.3c0.7,0,1.5-0.2,2.1-0.6c0.3-0.2,0.6-0.4,0.8-0.6l0.1-0.1l0.2,0.1
				c2.6,1.6,4.1,3.5,4.3,5.6c0,0.1,0,0.2,0.1,0.3l0.1,0.1l0,0.1c-0.1,0.5-0.1,1-0.1,1.4c0,1.8,1,2.9,1.7,3.4c0.3,0.2,0.7,0.4,1,0.6
				l0.1,0.1V44l-5.5-4.7l0.1-0.2c0.2-0.4,0.3-0.9,0.3-1.3c0.1-1.1,0-2.7-1.5-4.1c-2.6-2.5-8.3-3.5-8.6-3.5c0,0-0.1,0-0.1,0
				c-0.2,0-0.3,0.1-0.4,0.2c-0.1,0.1-0.2,0.3-0.1,0.5c0,0.2,1.2,6,3.8,8.5c1,0.9,2.1,1.4,3.4,1.4c0.2,0,0.5,0,0.7-0.1
				c0.2,0,0.5-0.1,0.7-0.1l0.2,0l4.4,5.8h-3.8L20,46.2c-0.2-0.4-0.4-0.8-0.7-1.1c-0.6-0.7-1.7-1.6-3.5-1.6c0,0,0,0,0,0
				c-1.2,0-2.6,0.4-4.3,1.2l-0.1,0.1l-0.1-0.1c-0.4-0.3-0.8-0.8-1.1-1.4l-0.1-0.2l0.1-0.1c0.4-0.3,2.2-2.2,1.1-4.8
				C10.2,35.3,6,32.5,6,32.4c-0.1-0.1-0.2-0.1-0.3-0.1c-0.1,0-0.1,0-0.2,0c-0.2,0.1-0.3,0.2-0.3,0.4c0,0.1-1.1,5,0,7.8
				C6,42.8,8,43.2,8.8,43.3l0.1,0L9,43.4c0.3,0.7,0.7,1.2,1.1,1.7l0.2,0.2l-0.3,0.2c-0.9,0.5-1.5,1-1.7,1.1
				c-0.2,0.1-0.2,0.3-0.2,0.5c0,0.2,0.1,0.4,0.2,0.5c0.2,0.1,4.3,2.9,7.6,2.9h0c1.8,0,2.9-1,3.4-1.7c0.2-0.3,0.4-0.7,0.6-1l0.1-0.1
				h4.7l11.8,15.4l-0.2,3l-7.8-5.8l0-0.2c0.1-0.4,0.2-1.2,0.1-2.2c-0.1-1.9-1-3.4-2.4-4.3c-1.9-1.3-4.9-1.6-7-1.6
				c-1.4,0-2.5,0.1-2.6,0.1c-0.2,0-0.3,0.1-0.4,0.3c-0.1,0.1-0.1,0.3-0.1,0.5c0.1,0.2,2,5.7,5.2,7.9c1,0.7,2.1,1,3.3,1
				c0.4,0,0.9-0.1,1.4-0.2c0.5-0.1,1-0.3,1.5-0.5l0.1-0.1l6.4,4.7l-0.8,0c-0.4,0-0.9,0-1.3,0c-0.4,0-0.7,0-1.1,0l-0.1,0l-0.1-0.1
				c-0.7-0.5-2.2-1.5-3.9-2c-0.8-0.2-1.6-0.3-2.3-0.3c-0.9,0-1.9,0.1-2.8,0.4l-0.1,0l-0.1,0c-1.9-0.3-4-1.4-6.1-3.4l-0.1-0.1
				l0.1-0.2c0.5-1.1,0.8-3.4-1.2-5.1c-2.4-1.9-7.3-2.3-7.5-2.3c-0.2,0-0.3,0.1-0.4,0.2c-0.1,0.1-0.2,0.3-0.1,0.5
				c0.1,0.2,1.5,4.9,3.8,6.8c0.8,0.6,1.7,1,2.6,1c0.5,0,1.1-0.1,1.6-0.3l0.1-0.1l0.1,0.1c1.1,1.1,2.9,2.6,5,3.4l0.5,0.2l-0.5,0.2
				c-1.2,0.6-1.9,1.2-1.9,1.3c-0.2,0.1-0.2,0.3-0.2,0.5c0,0.2,0.2,0.4,0.4,0.4c0,0,1.7,0.5,3.2,1.4c0.3,0.2,0.5,0.3,0.8,0.5
				c0.9,0.6,1.9,1.3,3.2,1.3c0.3,0,0.7,0,1-0.1c2.6-0.7,5.4-3,5.4-3l0.1-0.1l0.1-0.1c0,0,0.5,0,0.7,0c1.6,0,2.9,0.2,4,0.5l0.2,0.1
				l-0.6,8c-0.1,1.8-0.5,6-1.7,9l1.1,0.4c0.4-1.1,0.9-2.8,1.1-4.2c0.5-2.6,0.6-4.8,0.6-5l0.9-12.5c0-0.1,0-0.3-0.1-0.4L25.7,46.8
				l0-0.1c0-0.2-0.1-0.3-0.3-0.4l0,0l-3-3.9l0.4-0.3l14.6,12.4c0.1,0.1,0.2,0.1,0.4,0.1c0.1,0,0.1,0,0.2,0c0.2-0.1,0.3-0.3,0.3-0.5
				l2.1-30.6h0.5l2.1,30.6c0,0.2,0.1,0.4,0.3,0.5c0.1,0,0.1,0,0.2,0c0.1,0,0.3,0,0.4-0.1l14.6-12.4l0.4,0.3l-3,3.9l0,0
				c-0.1,0.1-0.2,0.2-0.3,0.4l0,0L43.5,62.3c-0.1,0.1-0.1,0.2-0.1,0.4l0.9,12.5c0,0.4,0.1,2.6,0.6,5c0.3,1.5,0.8,3.1,1.2,4.2
				l1.1-0.4c-1.2-3-1.6-7.2-1.7-9l-0.6-8l0.2-0.1c1.1-0.3,2.4-0.5,4-0.5c0.2,0,0.4,0,0.6,0l0.1,0l0.1,0.1c0,0,2.8,2.4,5.4,3.1
				c0.3,0.1,0.7,0.1,1,0.1c1.3,0,2.2-0.6,3.2-1.3c0.3-0.2,0.6-0.4,0.8-0.5c1.5-0.9,3.1-1.4,3.2-1.4c0.2-0.1,0.3-0.2,0.4-0.4
				c0-0.2,0-0.4-0.2-0.5c0,0-0.7-0.6-1.9-1.3l-0.5-0.2l0.5-0.2c2-0.8,3.8-2.3,5-3.4l0.1-0.1l0.1,0.1c0.5,0.2,1.1,0.3,1.6,0.3
				c1,0,1.8-0.3,2.6-1c2.4-1.9,3.8-6.6,3.8-6.8c0.1-0.2,0-0.4-0.1-0.5c-0.1-0.1-0.3-0.2-0.5-0.2c0,0,0,0,0,0c-0.2,0-5.1,0.4-7.5,2.3
				c-2,1.6-1.7,3.9-1.2,5.1l0.1,0.2l-0.1,0.1c-2.2,2-4.2,3.2-6.1,3.4l-0.1,0l-0.1,0l-0.1,0c-0.9-0.3-1.9-0.4-2.8-0.4
				c-0.8,0-1.6,0.1-2.3,0.3c-1.8,0.4-3.2,1.4-3.9,2l-0.1,0.1l-0.1,0c-0.4,0-0.7,0-1.1,0c-0.4,0-0.9,0-1.3,0l-0.8,0l6.4-4.7l0.1,0.1
				c0.5,0.2,1,0.4,1.5,0.5c0.5,0.1,0.9,0.2,1.4,0.2c1.2,0,2.3-0.4,3.3-1c3.2-2.2,5.1-7.6,5.2-7.9c0.1-0.2,0-0.3-0.1-0.5
				c-0.1-0.1-0.2-0.2-0.4-0.3c-0.1,0-1.2-0.1-2.6-0.1c-2.1,0-5.1,0.3-7,1.6c-1.4,1-2.2,2.5-2.4,4.3c-0.1,0.9,0,1.7,0.1,2.2l0,0.2
				l-7.8,5.8l-0.2-3l11.8-15.4h4.7l0.1,0.1c0.2,0.4,0.4,0.7,0.6,1c0.6,0.8,1.6,1.7,3.5,1.7c3.2,0,7.3-2.8,7.5-2.9
				c0.2-0.1,0.2-0.3,0.2-0.5c0-0.2-0.1-0.4-0.2-0.5c-0.2-0.1-0.8-0.6-1.7-1.1l-0.3-0.2l0.2-0.2c0.4-0.4,0.8-1,1.1-1.7l0.1-0.1l0.1,0
				c0.8-0.1,2.8-0.5,3.7-2.7C77.2,37.8,76.1,32.8,76.1,32.8z M61.9,34.6c1.7-1.6,5-2.6,6.8-3l0.4-0.1L69,31.9
				c-0.2,0.6-0.4,1.3-0.6,1.9c-0.8,2.2-1.7,3.8-2.6,4.8c-0.8,0.7-1.6,1.1-2.6,1.1c-0.1,0-0.3,0-0.4,0l-0.4,0l1.9-2.4
				c0.2-0.2,0.2-0.6-0.1-0.7c-0.1-0.1-0.2-0.2-0.4-0.2c-0.1,0-0.3,0-0.4,0.1L61,38.6l-0.1-0.4c0-0.1-0.1-0.3-0.1-0.4
				C60.7,36.5,61,35.5,61.9,34.6z M62.6,26.1c0.2-0.8,0.6-1.8,2-2.4c0.8-0.3,1.8-0.5,3.1-0.5c1.2,0,2.4,0.1,3.2,0.3l0.4,0.1
				l-0.3,0.3c-0.8,1-2.8,3.4-4.6,4.2c-0.4,0.2-0.8,0.3-1.3,0.3c-0.6,0-1.2-0.2-1.7-0.5l-0.4-0.2l0.4-0.2c1-0.5,1.6-0.7,1.6-0.7
				c0.3-0.1,0.5-0.4,0.4-0.7c-0.1-0.2-0.3-0.4-0.5-0.4c-0.1,0-0.1,0-0.2,0c-0.1,0-0.8,0.3-1.7,0.7l-0.4,0.2L62.6,26.1z M58.4,16.6
				c1.3-1.3,4-2.1,5.4-2.4l0.4-0.1l-0.1,0.4c-0.1,0.4-0.3,0.9-0.4,1.4c-0.6,1.8-1.4,3.2-2.2,4c-0.6,0.6-1.3,0.9-2.1,0.9
				c-0.2,0-0.4,0-0.5,0l-0.4-0.1l0.2-0.3c0.6-0.8,1.1-1.2,1.1-1.2c0.3-0.2,0.3-0.5,0.1-0.8c-0.1-0.2-0.3-0.2-0.5-0.2
				c-0.1,0-0.2,0-0.3,0.1c0,0-0.6,0.4-1.3,1.3l-0.3,0.4l-0.1-0.5c0-0.1,0-0.1,0-0.2C57.3,18.2,57.6,17.4,58.4,16.6z M45.5,28.1
				c1.1-1.1,3.3-1.9,4.9-2.3l0.4-0.1l-0.1,0.4c-0.3,1.3-1.1,3.7-2.3,4.9c-0.6,0.6-1.2,0.8-2,0.8c0,0-0.6,0-0.6,0l1.2-1.2
				c0.2-0.2,0.2-0.6,0-0.8c-0.1-0.1-0.2-0.2-0.4-0.2c-0.1,0-0.3,0.1-0.4,0.2l-1.4,1.3l-0.1-0.4c0-0.1,0-0.2-0.1-0.3
				C44.6,29.5,44.8,28.7,45.5,28.1z M48.4,9.5c0.8-1.1,2.5-2.1,3.5-2.6l0.4-0.2l0,0.4c-0.1,1.1-0.3,3.1-1.1,4.2
				c-0.4,0.6-0.9,0.9-1.6,1L49,12.5l0.4-0.5c0.3-0.4,0.5-0.6,0.5-0.6c0.2-0.2,0.2-0.6,0-0.8c-0.1-0.1-0.2-0.2-0.4-0.2
				c-0.2,0-0.3,0.1-0.4,0.2c0,0-0.3,0.3-0.7,0.8l-0.3,0.4L48,11.3C47.9,10.7,48,10.1,48.4,9.5z M46.4,19.4c0-0.1,0-0.1,0-0.2
				c0.1-1,0.7-1.7,1.6-2.2c1.4-0.8,3.5-0.9,5.1-0.9c0.3,0,0.5,0,0.8,0l0.4,0l-0.2,0.4c-0.8,1.3-2.3,3.6-3.9,4.5
				c-0.5,0.3-1,0.4-1.5,0.4c-0.4,0-0.9-0.1-1.3-0.3l-0.4-0.2l1.9-1.1c0.1-0.1,0.2-0.2,0.3-0.3c0-0.1,0-0.3-0.1-0.4
				c-0.1-0.2-0.3-0.3-0.5-0.3c-0.1,0-0.2,0-0.3,0.1l-1.5,0.9l-0.4,0.2L46.4,19.4z M33.2,11.3l-0.1,0.5l-0.3-0.4
				c-0.4-0.4-0.6-0.7-0.7-0.8c-0.1-0.1-0.3-0.2-0.4-0.2c-0.1,0-0.3,0.1-0.4,0.2c-0.2,0.2-0.2,0.6,0,0.8c0,0,0.2,0.2,0.5,0.6l0.4,0.5
				l-0.6-0.1c-0.7-0.1-1.2-0.4-1.6-1c-0.8-1.1-1-3.1-1.1-4.2l0-0.4l0.4,0.2c1,0.5,2.8,1.5,3.5,2.6C33.1,10.1,33.3,10.7,33.2,11.3z
				 M32.1,19.4c0,0.1,0.1,0.3,0.3,0.3l1.9,1.1L33.8,21c-0.4,0.2-0.9,0.3-1.3,0.3c-0.5,0-1-0.1-1.5-0.4c-1.6-0.9-3.1-3.2-3.9-4.5
				l-0.2-0.4l0.4,0c0.2,0,0.4,0,0.7,0c1.6,0,3.8,0.2,5.2,0.9c1.2,0.7,1.5,1.7,1.6,2.4l0,0.5l-1.9-1.1c-0.1,0-0.2-0.1-0.3-0.1
				c-0.2,0-0.4,0.1-0.5,0.3C32.1,19.1,32.1,19.3,32.1,19.4z M36.5,30.4c0,0.1,0,0.2-0.1,0.3l-0.1,0.4L35,29.8
				c-0.1-0.1-0.2-0.2-0.4-0.2c-0.2,0-0.3,0.1-0.4,0.2c-0.2,0.2-0.2,0.6,0,0.8l0.8,0.8l0.4,0.4h-0.6c-0.8,0-1.4-0.3-2-0.8
				c-1.1-1.1-1.8-3.3-2.3-4.9l-0.1-0.4l0.4,0.1c1.3,0.4,3.7,1.1,4.9,2.3C36.3,28.7,36.6,29.5,36.5,30.4z M23.7,19.4l-0.1,0.5
				l-0.3-0.4c-0.7-0.9-1.3-1.3-1.3-1.3c-0.1-0.1-0.2-0.1-0.3-0.1c-0.2,0-0.4,0.1-0.5,0.2c-0.2,0.3-0.1,0.6,0.1,0.8
				c0,0,0.5,0.4,1.1,1.2l0.2,0.3l-0.4,0.1c-0.2,0-0.3,0-0.5,0c-0.8,0-1.5-0.3-2.1-0.9c-1.3-1.3-2.2-3.9-2.6-5.3L17,14.1l0.4,0.1
				c0.4,0.1,0.9,0.2,1.4,0.4c1.8,0.6,3.2,1.3,4,2C23.6,17.4,23.9,18.4,23.7,19.4z M18.3,26.3c-1-0.5-1.7-0.7-1.7-0.7
				c-0.1,0-0.1,0-0.2,0c-0.2,0-0.5,0.2-0.5,0.4c-0.1,0.3,0.1,0.6,0.4,0.7c0,0,0.7,0.2,1.7,0.7l0.4,0.2l-0.4,0.2
				c-0.5,0.4-1.1,0.5-1.7,0.5c-0.4,0-0.8-0.1-1.3-0.3c-1.8-0.7-3.7-2.9-4.6-4.2L10,23.6l0.4-0.1c0.4-0.1,1-0.1,1.6-0.2
				c0.6,0,1.1-0.1,1.6-0.1c1.3,0,2.3,0.2,3.1,0.5c1.3,0.5,1.8,1.6,2,2.4l0.1,0.5L18.3,26.3z M20.3,38.2l-0.1,0.4l-2.5-2.1
				c-0.1-0.1-0.2-0.1-0.4-0.1c-0.1,0-0.3,0.1-0.4,0.2c-0.2,0.2-0.2,0.5-0.1,0.7l1.9,2.4l-0.4,0c-0.1,0-0.3,0-0.4,0
				c-1,0-1.9-0.4-2.6-1.1c-1.7-1.6-2.7-4.9-3.2-6.7l-0.1-0.4l0.4,0.1c0.7,0.2,1.3,0.3,1.9,0.5c2.2,0.7,3.9,1.5,4.8,2.5
				C20.5,35.8,20.5,37.2,20.3,38.2z M9.6,42l-0.2-0.4C9.2,41,9,40.3,8.9,39.8c-0.1-0.3-0.3-0.4-0.5-0.4c0,0-0.1,0-0.1,0
				c-0.3,0.1-0.5,0.4-0.4,0.7c0,0.2,0.2,0.8,0.5,1.6l0.2,0.5L7.9,42c-0.8-0.3-1.4-0.9-1.8-1.7c-0.7-1.6-0.5-4.1-0.2-5.9L6,33.9
				l0.3,0.3c1.2,0.9,3.3,2.7,4,4.4c0.6,1.4,0.1,2.5-0.5,3.1L9.6,42z M16.6,46.4c-0.3,0-0.6,0.3-0.6,0.6c0,0.3,0.3,0.6,0.6,0.6h1.8
				l0.4,0L18.5,48c-0.6,0.8-1.5,1.3-2.6,1.3c-1.8,0-4.2-1.1-5.8-2.1L9.7,47l0.4-0.2c0.4-0.2,0.8-0.5,1.4-0.8
				c1.8-0.9,3.3-1.4,4.5-1.5l0.1,0h0c1.1,0,2,0.5,2.7,1.4l0.3,0.4H16.6z M27.6,59.4l-3.7-2.8c-0.1-0.1-0.2-0.1-0.3-0.1
				c-0.2,0-0.3,0.1-0.5,0.2c-0.2,0.2-0.1,0.6,0.1,0.8l3.6,2.6l-0.5,0.1c-0.5,0.1-1,0.2-1.4,0.2c-1,0-1.9-0.3-2.7-0.9
				c-2.1-1.4-3.6-4.6-4.4-6.3L17.7,53l0.3,0c0.4,0,0.9,0,1.4,0c2,0,4.7,0.2,6.3,1.4c1.1,0.8,1.7,1.9,1.9,3.5c0,0.4,0,0.7,0,1.1
				L27.6,59.4z M14.6,58.8l-0.1,0.5l-0.3-0.4c-0.7-0.8-1.2-1.3-1.2-1.4c-0.1-0.1-0.3-0.2-0.4-0.2c-0.1,0-0.2,0-0.3,0.1
				c-0.2,0.2-0.3,0.5-0.1,0.8c0.1,0.1,0.4,0.6,1.1,1.3l0.3,0.3L13,59.9c-0.2,0-0.3,0-0.5,0c-0.7,0-1.3-0.2-1.9-0.7
				c-1.4-1.2-2.5-3.7-3-5.1l-0.1-0.4l0.4,0.1c1.5,0.2,4.2,0.8,5.6,1.9C14.4,56.5,14.8,57.6,14.6,58.8z M24.7,66.9
				c0.1,0.3,0.3,0.4,0.5,0.4c0,0,0.1,0,0.1,0c0,0,1.4-0.3,3.2-0.5l0.2,0.5c-1.1,0.7-2.2,1.2-3,1.4c-0.2,0.1-0.5,0.1-0.7,0.1
				c-0.9,0-1.7-0.5-2.6-1.1c-0.3-0.2-0.5-0.4-0.8-0.5c-0.6-0.3-1.2-0.7-1.9-1l-0.4-0.2l0.4-0.3c1.1-0.7,2.9-1.5,5.1-1.5
				c0.7,0,1.4,0.1,2.1,0.3c0.6,0.1,1.2,0.4,1.8,0.7l0.7,0.4l-0.8,0.1c-1.8,0.2-3.2,0.5-3.2,0.5C24.8,66.3,24.6,66.6,24.7,66.9z
				 M27.2,35.8c-0.3,0-0.6,0.3-0.6,0.6v1.8l0,0.4c0,0-0.4-0.3-0.5-0.3c-0.8-0.6-1.3-1.5-1.3-2.5c0-2,1.3-4.5,2.1-5.9l0.2-0.4
				l0.2,0.4c0.2,0.4,0.5,0.8,0.8,1.4c0.9,1.8,1.4,3.3,1.5,4.5c0,1.1-0.5,2.1-1.4,2.7l-0.4,0.3v-2.3C27.8,36,27.5,35.8,27.2,35.8z
				 M34.5,42.5c0-0.3-0.3-0.5-0.6-0.5h0c-0.2,0-0.3,0.1-0.4,0.2c-0.1,0.1-0.2,0.3-0.2,0.4l0.1,1.8L33,44.1c-0.7-0.5-1-1.3-1-2.2
				c0-1.6,1-3.7,1.8-5.1l0.2-0.4l0.2,0.4c0.7,1.2,1.8,3.4,1.9,5.1c0,0.9-0.3,1.7-1,2.2l-0.5,0.4L34.5,42.5z M41.1,11.8L41.1,11.8
				c0-0.1,0-0.2-0.1-0.2c0,0,0-0.1-0.1-0.1c0,0,0-0.1-0.1-0.1c0,0,0,0-0.1-0.1c0,0-0.1,0-0.1-0.1c0,0-0.1,0-0.2-0.1l0,0l-0.1,0
				l-0.1,0c0,0-0.1,0-0.1,0c0,0-0.1,0-0.1,0.1c0,0-0.1,0-0.1,0.1c0,0,0,0.1-0.1,0.1c0,0,0,0.1-0.1,0.1c0,0,0,0.1,0,0.1
				c0,0,0,0.1,0,0.1l-0.2,2.7l-0.4-0.2c-0.8-0.5-1.7-1.5-1.7-3.1c0-2.3,1.5-5.4,2.5-7l0.2-0.4l0.2,0.3c0.4,0.6,0.7,1.2,1,1.7
				c1.1,2,1.7,3.8,1.7,5.2c0,1.7-0.9,2.7-1.7,3.2l-0.4,0.2L41.1,11.8z M46.7,42.5l0,1.4l0,0.4l-0.4-0.3c-0.7-0.6-1-1.3-1-2.2
				c0-1.6,1-3.6,1.9-5.1l0.2-0.4l0.2,0.4c0.7,1.2,1.8,3.4,1.8,5.1c0,0.9-0.4,1.7-1,2.2l-0.4,0.3l0.1-1.8c0-0.2-0.1-0.3-0.2-0.4
				c-0.1-0.1-0.2-0.2-0.4-0.2C47,42,46.7,42.2,46.7,42.5z M54,35.8c-0.3,0-0.6,0.3-0.6,0.6v2.3L53,38.4c-0.9-0.6-1.4-1.6-1.4-2.7
				c0-2,1.4-4.5,2.2-5.8l0.2-0.4l0.2,0.4c0.6,1.1,2.1,3.9,2.1,5.9c0,1.4-0.8,2.2-1.4,2.6l-0.4,0.3v-2.3C54.5,36,54.3,35.8,54,35.8z
				 M67.7,55.7c1.4-1.2,4.1-1.7,5.6-1.9l0.4-0.1l-0.1,0.4c-0.5,1.4-1.6,3.9-3,5.1c-0.6,0.5-1.2,0.7-1.9,0.7c-0.2,0-0.3,0-0.5,0
				l-0.5-0.1l0.3-0.3c0.7-0.7,1.1-1.3,1.1-1.3c0.2-0.2,0.1-0.6-0.1-0.8c-0.1-0.1-0.2-0.1-0.3-0.1c-0.2,0-0.3,0.1-0.4,0.2
				c0,0-0.4,0.6-1.2,1.3l-0.3,0.4l-0.1-0.5C66.3,57.6,66.7,56.5,67.7,55.7z M52.8,65.3c0.6-0.3,1.2-0.5,1.8-0.7
				c0.7-0.2,1.4-0.3,2.1-0.3c1.3,0,2.5,0.3,3.8,0.8c0.4,0.2,0.8,0.4,1.2,0.7l0.4,0.3l-0.4,0.2c-0.7,0.3-1.4,0.6-1.9,1
				c-0.3,0.2-0.6,0.4-0.9,0.6c-0.9,0.6-1.6,1.1-2.6,1.1c-0.2,0-0.5,0-0.7-0.1c-0.9-0.2-1.9-0.7-3-1.4l0.2-0.5
				c1.8,0.2,3.2,0.5,3.2,0.5c0,0,0.1,0,0.1,0c0.3,0,0.5-0.2,0.5-0.4c0-0.1,0-0.3-0.1-0.4c-0.1-0.1-0.2-0.2-0.4-0.2
				c-0.1,0-1.4-0.3-3.2-0.5L52,65.7L52.8,65.3z M55.4,54.3c1.7-1.1,4.4-1.4,6.3-1.4c0.5,0,1,0,1.4,0l0.3,0l-0.1,0.3
				c-0.2,0.5-0.5,1.2-0.9,2c-1.1,2-2.3,3.6-3.4,4.4c-0.8,0.6-1.7,0.9-2.7,0.9c-0.5,0-0.9-0.1-1.4-0.2l-0.5-0.1l3.6-2.6
				c0.2-0.2,0.3-0.5,0.1-0.8c-0.1-0.1-0.3-0.2-0.5-0.2c-0.1,0-0.2,0-0.3,0.1l-3.7,2.8l0-0.4C53.4,57.7,53.6,55.6,55.4,54.3z
				 M71.1,46.8l0.4,0.2l-0.4,0.2c-0.4,0.2-0.9,0.5-1.4,0.7c-1.8,0.9-3.3,1.3-4.5,1.3h0c-1.1,0-2-0.5-2.6-1.4l-0.3-0.4h2.3
				c0.3,0,0.6-0.3,0.6-0.6c0-0.3-0.3-0.6-0.6-0.6h-1.8l-0.4,0l0.3-0.4c0-0.1,0.1-0.1,0.1-0.2c0.6-0.8,1.5-1.2,2.6-1.2c0,0,0,0,0,0
				C67.2,44.6,69.8,46,71.1,46.8z M75,40.2c-0.3,0.9-0.9,1.4-1.8,1.7l-0.5,0.2l0.2-0.5c0.3-0.8,0.4-1.4,0.5-1.6
				c0.1-0.3-0.1-0.6-0.4-0.7c0,0-0.1,0-0.1,0c-0.3,0-0.5,0.2-0.5,0.4c-0.1,0.5-0.3,1.2-0.6,1.8L71.6,42l-0.3-0.3
				c-0.1-0.1-0.2-0.3-0.3-0.4c-0.5-0.9-0.6-1.8-0.2-2.7c0.7-1.7,2.8-3.5,4-4.4l0.3-0.3l0.1,0.4C75.4,35.7,75.7,38.5,75,40.2z"/>
		</g>
	</g>
	<g>
		<g>
			<g>
				<g>
					<path class="st0" d="M40.6,93.9c-3.7-3.7-11.7-5.4-23.1-5c-8.7,0.3-16.4,1.8-16.4,1.8l-0.2-0.8c0.1,0,7.8-1.5,16.6-1.8
						c11.8-0.4,19.8,1.3,23.7,5.3L40.6,93.9z"/>
				</g>
			</g>
			<g>
				<g>
					<path class="st0" d="M40.6,93.9L40,93.3c3.9-3.9,11.9-5.7,23.7-5.3c8.8,0.3,16.5,1.8,16.6,1.8l-0.2,0.8
						c-0.1,0-7.7-1.5-16.4-1.8C52.2,88.5,44.3,90.2,40.6,93.9z"/>
				</g>
			</g>
		</g>
		<g>
			<g>
				<g>
					<path class="st0" d="M40.6,90.8c-3.7-3.7-11.5-5.3-22.7-4.6c-8.5,0.5-16,2.1-16.1,2.1l-0.2-0.8c0.1,0,7.6-1.7,16.2-2.2
						c11.6-0.7,19.5,1,23.4,4.9L40.6,90.8z"/>
				</g>
			</g>
			<g>
				<g>
					<path class="st0" d="M40.6,90.8L40,90.2c3.9-3.9,11.8-5.6,23.4-4.9c8.6,0.5,16.1,2.1,16.2,2.2l-0.2,0.8
						c-0.1,0-7.6-1.6-16.1-2.1C52.1,85.5,44.3,87.1,40.6,90.8z"/>
				</g>
			</g>
		</g>
		<g>
			<g>
				<g>
					<path class="st0" d="M40.6,87.8c-3.7-3.7-11.4-5.1-22.3-4.1c-8.3,0.7-15.6,2.6-15.7,2.6l-0.2-0.8c0.1,0,7.4-1.9,15.8-2.7
						c11.4-1,19.1,0.5,23,4.4L40.6,87.8z"/>
				</g>
			</g>
			<g>
				<g>
					<path class="st0" d="M40.6,87.8L40,87.2c3.9-3.9,11.7-5.5,23-4.6c8.4,0.6,15.8,2.4,15.8,2.4l-0.2,0.8c-0.1,0-7.4-1.8-15.7-2.4
						C52,82.6,44.3,84.1,40.6,87.8z"/>
				</g>
			</g>
		</g>
	</g>
	<g>
		<g>
			<g>
				<path class="st1" d="M40.6,96.9"/>
			</g>
			<g>
				<path class="st1" d="M40.6,96.5c0.5,0,1,0,1.4-0.2c0.4-0.1,0.9-0.3,1.2-0.6c0.4-0.3,0.6-0.6,0.9-1c0.1-0.2,0.2-0.4,0.3-0.6
					c0-0.1,0.1-0.2,0.1-0.3c0-0.1,0-0.1,0-0.2c0-0.1,0-0.1,0-0.1v0l0-0.4l0.4,0L81,92.9v1.2l-36.1-0.2l0.4-0.4l0,0
					c0,0.1,0,0.2,0,0.2c0,0.1,0,0.1,0,0.2c0,0.1-0.1,0.3-0.1,0.4c-0.1,0.3-0.2,0.5-0.3,0.8c-0.3,0.5-0.6,1-1.1,1.3
					c-0.5,0.3-1,0.6-1.5,0.7c-0.5,0.1-1.1,0.2-1.6,0.2V96.5z"/>
			</g>
		</g>
		<g>
			<g>
				<path class="st1" d="M40.6,96.9"/>
			</g>
			<g>
				<path class="st1" d="M40.6,97.4c-0.5,0-1.1-0.1-1.6-0.2c-0.5-0.1-1.1-0.4-1.5-0.7c-0.5-0.3-0.8-0.8-1.1-1.3
					c-0.1-0.3-0.2-0.5-0.3-0.8c0-0.1-0.1-0.3-0.1-0.4c0-0.1,0-0.1,0-0.2c0-0.1,0-0.1,0-0.2l0,0l0.4,0.4L0.2,94.1v-1.2L36.3,93l0.4,0
					l0,0.4v0c0,0,0,0.1,0,0.1c0,0.1,0,0.1,0,0.2c0,0.1,0,0.2,0.1,0.3c0.1,0.2,0.1,0.4,0.3,0.6c0.2,0.4,0.5,0.7,0.9,1
					c0.4,0.3,0.8,0.5,1.2,0.6c0.4,0.1,0.9,0.2,1.4,0.2V97.4z"/>
			</g>
		</g>
	</g>
</g>
</svg>
